<svg width="24" height="24" viewBox="0 0 24 24" fill="none" xmlns="http://www.w3.org/2000/svg">
<path fill-rule="evenodd" clip-rule="evenodd" d="M19.5 5.25C19.5 4.83579 19.8358 4.5 20.25 4.5C20.6642 4.5 21 4.83579 21 5.25C21 8.1495 18.6495 10.5 15.75 10.5C12.8505 10.5 10.5 8.1495 10.5 5.25C10.5 2.35051 12.8505 0 15.75 0C16.1642 0 16.5 0.335786 16.5 0.75C16.5 1.16421 16.1642 1.5 15.75 1.5C13.6789 1.5 12 3.17893 12 5.25C12 7.32107 13.6789 9 15.75 9C17.8211 9 19.5 7.32107 19.5 5.25ZM6 7.388C5.58579 7.388 5.25 7.72379 5.25 8.138V20.25C5.25 21.4926 6.25736 22.5 7.5 22.5H15C15.4142 22.5 15.75 22.1642 15.75 21.75C15.75 21.3358 15.4142 21 15 21H7.5C7.08579 21 6.75 20.6642 6.75 20.25V8.138C6.75 7.72379 6.41421 7.388 6 7.388ZM23.7159 22.3697C24.0405 22.1124 24.095 21.6406 23.8377 21.3161L22.5 19.6288V15.424C22.5374 13.8756 21.6004 12.7303 19.234 10.7311C18.7465 10.3192 18 10.6657 18 11.304V14.7805L17.5366 14.306C16.7787 13.5281 15.5327 13.5118 14.7541 14.2703C13.9756 15.0288 13.9593 16.2748 14.7178 17.0534L17.26 19.6445V20.8L17.2707 20.9265C17.4384 21.906 17.8114 22.839 18.3653 23.664C18.5962 24.0079 19.0621 24.0996 19.406 23.8687C19.7499 23.6378 19.8416 23.1719 19.6107 22.828C19.1862 22.1957 18.8967 21.4829 18.76 20.7342V19.338C18.76 19.1416 18.6829 18.953 18.5454 18.8127L15.7904 16.0047C15.6118 15.8215 15.6157 15.5251 15.8009 15.3447C15.986 15.1643 16.2824 15.1682 16.4628 15.3534L18.2134 17.146C18.6833 17.6271 19.5 17.2945 19.5 16.622V12.975C20.5805 14.0093 21.0168 14.7144 21.0002 15.406L21 19.89C21 20.0592 21.0572 20.2234 21.1623 20.3559L22.6623 22.2479C22.9196 22.5725 23.3914 22.627 23.7159 22.3697ZM12.978 17.25C13.3922 17.25 13.728 17.5858 13.728 18C13.728 18.4142 13.3922 18.75 12.978 18.75H9C8.58579 18.75 8.25 18.4142 8.25 18C8.25 17.5858 8.58579 17.25 9 17.25H12.978ZM11.25 14.25C11.25 13.8358 10.9142 13.5 10.5 13.5H9C8.58579 13.5 8.25 13.8358 8.25 14.25C8.25 14.6642 8.58579 15 9 15H10.5C10.9142 15 11.25 14.6642 11.25 14.25ZM20.7803 1.34367C20.4874 1.05078 20.0126 1.05078 19.7197 1.34367L15.75 5.31329L14.5915 4.15388C14.2988 3.86087 13.8239 3.86068 13.5309 4.15346C13.2379 4.44624 13.2377 4.92112 13.5305 5.21412L14.8195 6.50412C15.0647 6.75087 15.4001 6.89039 15.75 6.89039C16.0999 6.89039 16.4353 6.75087 16.6819 6.50274L20.7803 2.40433C21.0732 2.11144 21.0732 1.63656 20.7803 1.34367Z" fill="#FF5959"/>
<mask id="mask0" mask-type="alpha" maskUnits="userSpaceOnUse" x="5" y="0" width="19" height="24">
<path fill-rule="evenodd" clip-rule="evenodd" d="M19.5 5.25C19.5 4.83579 19.8358 4.5 20.25 4.5C20.6642 4.5 21 4.83579 21 5.25C21 8.1495 18.6495 10.5 15.75 10.5C12.8505 10.5 10.5 8.1495 10.5 5.25C10.5 2.35051 12.8505 0 15.75 0C16.1642 0 16.5 0.335786 16.5 0.75C16.5 1.16421 16.1642 1.5 15.75 1.5C13.6789 1.5 12 3.17893 12 5.25C12 7.32107 13.6789 9 15.75 9C17.8211 9 19.5 7.32107 19.5 5.25ZM6 7.388C5.58579 7.388 5.25 7.72379 5.25 8.138V20.25C5.25 21.4926 6.25736 22.5 7.5 22.5H15C15.4142 22.5 15.75 22.1642 15.75 21.75C15.75 21.3358 15.4142 21 15 21H7.5C7.08579 21 6.75 20.6642 6.75 20.25V8.138C6.75 7.72379 6.41421 7.388 6 7.388ZM23.7159 22.3697C24.0405 22.1124 24.095 21.6406 23.8377 21.3161L22.5 19.6288V15.424C22.5374 13.8756 21.6004 12.7303 19.234 10.7311C18.7465 10.3192 18 10.6657 18 11.304V14.7805L17.5366 14.306C16.7787 13.5281 15.5327 13.5118 14.7541 14.2703C13.9756 15.0288 13.9593 16.2748 14.7178 17.0534L17.26 19.6445V20.8L17.2707 20.9265C17.4384 21.906 17.8114 22.839 18.3653 23.664C18.5962 24.0079 19.0621 24.0996 19.406 23.8687C19.7499 23.6378 19.8416 23.1719 19.6107 22.828C19.1862 22.1957 18.8967 21.4829 18.76 20.7342V19.338C18.76 19.1416 18.6829 18.953 18.5454 18.8127L15.7904 16.0047C15.6118 15.8215 15.6157 15.5251 15.8009 15.3447C15.986 15.1643 16.2824 15.1682 16.4628 15.3534L18.2134 17.146C18.6833 17.6271 19.5 17.2945 19.5 16.622V12.975C20.5805 14.0093 21.0168 14.7144 21.0002 15.406L21 19.89C21 20.0592 21.0572 20.2234 21.1623 20.3559L22.6623 22.2479C22.9196 22.5725 23.3914 22.627 23.7159 22.3697ZM12.978 17.25C13.3922 17.25 13.728 17.5858 13.728 18C13.728 18.4142 13.3922 18.75 12.978 18.75H9C8.58579 18.75 8.25 18.4142 8.25 18C8.25 17.5858 8.58579 17.25 9 17.25H12.978ZM11.25 14.25C11.25 13.8358 10.9142 13.5 10.5 13.5H9C8.58579 13.5 8.25 13.8358 8.25 14.25C8.25 14.6642 8.58579 15 9 15H10.5C10.9142 15 11.25 14.6642 11.25 14.25ZM20.7803 1.34367C20.4874 1.05078 20.0126 1.05078 19.7197 1.34367L15.75 5.31329L14.5915 4.15388C14.2988 3.86087 13.8239 3.86068 13.5309 4.15346C13.2379 4.44624 13.2377 4.92112 13.5305 5.21412L14.8195 6.50412C15.0647 6.75087 15.4001 6.89039 15.75 6.89039C16.0999 6.89039 16.4353 6.75087 16.6819 6.50274L20.7803 2.40433C21.0732 2.11144 21.0732 1.63656 20.7803 1.34367Z" fill="white"/>
</mask>
<g mask="url(#mask0)">
</g>
</svg>
