<svg width="27" height="27" viewBox="0 0 27 27" fill="none" xmlns="http://www.w3.org/2000/svg">
<path d="M18.0319 6.98154L14.1614 10.3461L4.7138 9.27713C4.6004 9.26138 4.48431 9.29683 4.39692 9.37389L3.77962 9.9105C3.73451 9.94838 3.69746 9.9949 3.6708 10.0471C3.57788 10.2498 3.66175 10.4845 3.85998 10.5764L10.4576 13.5657C10.4576 13.5657 7.77292 16.1736 6.58766 16.854C6.08904 17.1403 4.6525 17.0584 4.6525 17.0584C4.54621 17.0485 4.43935 17.0842 4.35838 17.1564C4.27557 17.2269 4.22377 17.3269 4.21466 17.4337C4.20555 17.5405 4.2399 17.6451 4.30996 17.724L6.91739 20.388C7.18447 20.6609 7.61997 20.6724 7.90109 20.414L9.07511 19.335L12.5395 15.9606L14.5815 22.9101C14.6449 23.1192 14.8656 23.2349 15.0793 23.1711C15.1347 23.152 15.186 23.1218 15.2297 23.0824L15.847 22.5458C15.9355 22.4699 15.9868 22.3599 15.987 22.2454L16.2433 12.741L20.1137 9.37643C20.7956 8.78371 20.8823 7.7671 20.3074 7.10577C19.7325 6.44444 18.7137 6.38882 18.0319 6.98154Z" stroke="#FF5959" stroke-width="1.5"/>
</svg>
