<svg width="24" height="24" viewBox="0 0 24 24" fill="none" xmlns="http://www.w3.org/2000/svg">
<path d="M8.78566 12L16.7834 20.2047C17.0722 20.501 17.0722 20.9814 16.7834 21.2778C16.4945 21.5741 16.0262 21.5741 15.7373 21.2778L7.21664 12.5365C6.92779 12.2402 6.92779 11.7598 7.21664 11.4635L15.7373 2.72224C16.0262 2.42592 16.4945 2.42592 16.7834 2.72224C17.0722 3.01857 17.0722 3.499 16.7834 3.79533L8.78566 12Z" fill="#9BA4AB"/>
<mask id="mask0" mask-type="alpha" maskUnits="userSpaceOnUse" x="7" y="2" width="10" height="20">
<path d="M8.78566 12L16.7834 20.2047C17.0722 20.501 17.0722 20.9814 16.7834 21.2778C16.4945 21.5741 16.0262 21.5741 15.7373 21.2778L7.21664 12.5365C6.92779 12.2402 6.92779 11.7598 7.21664 11.4635L15.7373 2.72224C16.0262 2.42592 16.4945 2.42592 16.7834 2.72224C17.0722 3.01857 17.0722 3.499 16.7834 3.79533L8.78566 12Z" fill="white"/>
</mask>
<g mask="url(#mask0)">
</g>
</svg>
