<svg width="24" height="24" viewBox="0 0 24 24" fill="none" xmlns="http://www.w3.org/2000/svg">
<path d="M21.75 0C22.9926 0 24 1.00736 24 2.25V17.25C24 18.4926 22.9926 19.5 21.75 19.5H11.5L5.7 23.85C5.20557 24.2208 4.5 23.868 4.5 23.25V19.5H2.25C1.00736 19.5 0 18.4926 0 17.25V2.25C0 1.00736 1.00736 0 2.25 0H21.75ZM21.75 1.5H2.25C1.83579 1.5 1.5 1.83579 1.5 2.25V17.25C1.5 17.6642 1.83579 18 2.25 18H5.25C5.66421 18 6 18.3358 6 18.75V21.75L10.8 18.15C10.9298 18.0526 11.0877 18 11.25 18H21.75C22.1642 18 22.5 17.6642 22.5 17.25V2.25C22.5 1.83579 22.1642 1.5 21.75 1.5ZM18.4515 9.38213C18.7928 9.61692 18.879 10.0839 18.6443 10.4251C17.2506 12.4506 14.7411 13.7064 11.9926 13.7064C9.27567 13.7064 6.79121 12.4795 5.38738 10.4918C5.14843 10.1535 5.229 9.6855 5.56734 9.44655C5.90568 9.2076 6.37366 9.28816 6.61262 9.6265C7.72892 11.2071 9.75258 12.2064 11.9926 12.2064C14.2582 12.2064 16.3013 11.184 17.4085 9.57487C17.6433 9.23363 18.1103 9.14734 18.4515 9.38213Z" fill="#9BA4AB"/>
</svg>
