<svg width="24" height="24" viewBox="0 0 24 24" fill="none" xmlns="http://www.w3.org/2000/svg">
<path d="M8.79604 15.8806C8.36708 16.2765 8.36708 16.9542 8.79604 17.3502L8.82172 17.3739C9.20478 17.7275 9.79522 17.7275 10.1783 17.3739L15.204 12.7348C15.6329 12.3388 15.6329 11.6612 15.204 11.2652L10.1783 6.6261C9.79522 6.27251 9.20478 6.27251 8.82172 6.6261L8.79604 6.64981C8.36708 7.04577 8.36708 7.72346 8.79604 8.11942L13 12L8.79604 15.8806Z" fill="#9BA4AB"/>
<mask id="mask0" mask-type="alpha" maskUnits="userSpaceOnUse" x="8" y="6" width="8" height="12">
<path d="M8.79604 15.8806C8.36708 16.2765 8.36708 16.9542 8.79604 17.3502L8.82172 17.3739C9.20478 17.7275 9.79522 17.7275 10.1783 17.3739L15.204 12.7348C15.6329 12.3388 15.6329 11.6612 15.204 11.2652L10.1783 6.6261C9.79522 6.27251 9.20478 6.27251 8.82172 6.6261L8.79604 6.64981C8.36708 7.04577 8.36708 7.72346 8.79604 8.11942L13 12L8.79604 15.8806Z" fill="white"/>
</mask>
<g mask="url(#mask0)">
</g>
</svg>
