<?xml version="1.0" encoding="utf-8"?>
<!-- Generator: Adobe Illustrator 24.0.2, SVG Export Plug-In . SVG Version: 6.00 Build 0)  -->
<svg version="1.1" id="Layer_1" xmlns="http://www.w3.org/2000/svg" xmlns:xlink="http://www.w3.org/1999/xlink" x="0px" y="0px"
	 viewBox="0 0 512 512" style="enable-background:new 0 0 512 512;" xml:space="preserve">
<style type="text/css">
	.st0{fill:#C1E8F7;}
	.st1{fill:none;}
	.st2{fill:#FFDDCA;}
	.st3{fill:#93AFCA;}
	.st4{fill:#B62739;}
	.st5{fill:#B9D4F3;}
	.st6{fill:#FFE6D3;}
	.st7{fill:#554C44;}
	.st8{fill:#121112;}
	.st9{fill:#1D1B1E;}
</style>
<circle id="XMLID_8234_" class="st0" cx="256.0887" cy="255.7101" r="249.4083"/>
<g id="XMLID_7856_">
	<path id="XMLID_7872_" class="st1" d="M320.5496,319.1732c0.5063,0.4907,0.9806,0.9654,1.4112,1.3871
		C321.4686,319.9439,320.985,319.4992,320.5496,319.1732z"/>
	<path id="XMLID_7871_" class="st1" d="M196.6835,318.7649c-0.5986,0.3594-1.531,1.0956-2.3763,2.3425
		C194.9844,320.4272,195.7759,319.6524,196.6835,318.7649z"/>
	<path id="XMLID_7870_" class="st2" d="M257.9536,346.8193c0.2333,0.1791,0.3661,0.3931,0.454,0.6231
		c0.0875-0.2299,0.2203-0.4439,0.4536-0.6231c29.6871-22.7319,41.3369-37.9678,46.5338-41.9978
		c-3.5742-7.6243-5.0218-15.1577-5.5974-21.3986c-0.6172,0.5723-1.2239,1.1557-1.8563,1.7116
		c-3.5564,3.1247-7.3613,5.9816-11.4496,8.3746c-3.4856,2.0421-7.1759,3.737-11.0231,4.9728
		c-3.4967,1.1238-7.1098,1.8626-10.7634,2.2324c-4.5385,0.4588-9.1976,0.3193-13.7049-0.3958
		c-3.7007-0.5878-7.3331-1.5755-10.8202-2.9456c-3.9136-1.5377-7.6317-3.5431-11.128-5.8748
		c-4.1587-2.7735-8.0067-5.9961-11.5998-9.4661c-0.0178-0.0171-0.0341-0.036-0.0519-0.0534
		c-0.4977,6.5268-1.9119,14.7171-5.8181,22.9729C216.8566,309.1642,228.565,324.3155,257.9536,346.8193z"/>
	<path id="XMLID_7869_" class="st3" d="M248.6228,389.0816c-4.0093-8.9813-8.4958-14.1125-8.9802-21.5584
		c-4.0886,4.5726-7.1035,9.3797-6.6774,13.8918c1.2024,12.7365-35.882-30.0446-40.5102-51.6857
		c-0.4647,3.8031-0.787,12.5318,10.8777,29.7205c5.7624,8.4918,21.0792,52.2524,36.1638,99.3648
		c4.7525-31.7091,9.3066-60.4953,10.7045-68.1626C249.5293,390.2532,248.9173,389.7425,248.6228,389.0816z"/>
	<path id="XMLID_7868_" class="st3" d="M268.1918,389.0816c-0.2949,0.6609-0.9072,1.1735-1.5807,1.5722
		c1.435,7.8701,6.1919,37.9719,11.0765,70.6472c12.7766-43.771,28.5266-91.3818,35.6305-101.8512
		c11.1462-16.4243,11.3446-25.1044,10.9348-29.1645c-5.1438,21.8113-41.5954,63.7547-40.4034,51.1298
		c0.4261-4.5122-2.5891-9.3192-6.6778-13.8918C276.6873,374.9691,272.2007,380.1003,268.1918,389.0816z"/>
	<path id="XMLID_7867_" class="st3" d="M318.0313,372.0172l0.3149,0.237c0.033-0.0898,0.0638-0.1754,0.0964-0.2652
		C318.1893,372.0061,318.0313,372.0172,318.0313,372.0172z"/>
	<path id="XMLID_7866_" class="st4" d="M277.6876,461.3009c-4.8846-32.6753-9.6415-62.777-11.0765-70.6472
		c0.6735-0.3987,1.2859-0.9113,1.5807-1.5722c4.0089-8.9813,8.4955-14.1125,8.9799-21.5584
		c-7.1903-8.0426-17.696-15.348-18.7642-19.0316c-1.0685,3.6836-11.5738,10.989-18.7649,19.0316
		c0.4844,7.4459,4.971,12.5771,8.9802,21.5584c0.2945,0.6609,0.9064,1.1716,1.5781,1.5703
		c-1.3979,7.6673-5.952,36.4535-10.7045,68.1626c4.9394,15.4265,9.8507,31.2047,14.3966,46.23
		c0.978,0.0111,1.9427,0.0735,2.9233,0.0735c2.966,0,5.9019-0.1205,8.843-0.2237
		C268.9355,492.0988,273.1187,476.9549,277.6876,461.3009z"/>
	<path id="XMLID_7865_" class="st5" d="M196.6835,318.7649c-0.9076,0.8875-1.699,1.6623-2.3763,2.3425
		c-0.9858,1.455-1.8088,3.5846-1.6523,6.7449c0.0197,0.3965-0.0938,1.0107-0.1999,1.877
		c4.6283,21.6411,41.7126,64.4223,40.5102,51.6857c-0.4261-4.5122,2.5888-9.3192,6.6774-13.8918
		c7.1911-8.0426,17.6964-15.348,18.7649-19.0316c1.0681,3.6836,11.5738,10.989,18.7642,19.0316
		c4.0886,4.5726,7.1039,9.3797,6.6778,13.8918c-1.192,12.6249,35.2596-29.3184,40.4034-51.1298
		c-0.1168-1.1572-0.2808-1.9586-0.257-2.433c0.1765-3.5675-0.8864-5.854-2.0351-7.292c-0.4306-0.4217-0.9049-0.8964-1.4112-1.3871
		c-0.6646-0.4988-1.1779-0.7299-1.1779-0.7299s0.1558-0.0252,0.392-0.0378c-3.0431-2.999-7.0564-7.2619-10.9255-13.8088
		c-0.7228-1.2232-1.7387-1.0974-3.4433,0.2248c-5.1968,4.03-16.8467,19.266-46.5338,41.9978
		c-0.2333,0.1791-0.3661,0.3931-0.4536,0.6231c-0.0879-0.2299-0.2207-0.4439-0.454-0.6231
		c-29.3885-22.5038-41.097-37.6552-46.3713-41.8677c-1.801-1.4398-2.8603-1.6163-3.6057-0.3549
		c-3.8724,6.5532-7.8891,10.8168-10.9329,13.8169c0.1417,0.0134,0.2359,0.0297,0.2359,0.0297S197.0284,318.5575,196.6835,318.7649z"
		/>
	<path id="XMLID_7864_" class="st6" d="M229.052,291.4982c3.4963,2.3318,7.2144,4.3371,11.128,5.8748
		c3.4871,1.3701,7.1195,2.3577,10.8202,2.9456c4.5074,0.7151,9.1664,0.8545,13.7049,0.3958
		c3.6536-0.3698,7.2668-1.1086,10.7634-2.2324c3.8472-1.2358,7.5375-2.9307,11.0231-4.9728
		c4.0883-2.3929,7.8932-5.2499,11.4496-8.3746c0.6324-0.556,1.2391-1.1394,1.8563-1.7116c0.5011-0.4651,1.0155-0.9153,1.5069-1.3908
		c15.2905-14.762,15.1588-52.0648,18.8491-49.4281c8.4358,5.6675,13.8403-11.2037,14.8947-21.2216
		c0.9046-8.5904-2.3317-12.8716-5.9304-11.269c-0.9643,2.1396-2.15,3.7608-3.6236,4.6171c0,0-5.2751,21.805-7.536,21.123
		c-2.2606-0.6817-1.2777-20.3615,2.2609-43.3968c3.7675-24.5296-26.3754-13.8392-47.4758-14.5201
		c-21.1-0.6821-69.9169-4.7955-73.6847,6.7883c-3.7678,11.5827,3.602,46.5705,0.5879,47.9335
		c-3.0146,1.3626-6.7824-15.8831-9.7965-19.2905c-0.4855-0.5478-0.9903-1.857-1.5013-3.6139
		c-3.0349-0.1647-5.4342,4.0812-4.6398,11.6283c1.0544,10.018,6.459,26.8891,14.8943,21.2216
		c3.6862-2.6333,3.5609,34.5776,18.7972,49.3747c0.0178,0.0174,0.0341,0.0363,0.0519,0.0534
		C221.0454,285.5021,224.8933,288.7247,229.052,291.4982z"/>
	<path id="XMLID_7863_" class="st7" d="M199.6465,222.6583c3.0142-1.363-4.3557-36.3508-0.5879-47.9335
		c3.7678-11.5838,52.5847-7.4704,73.6847-6.7883c21.1004,0.6809,51.2433-10.0094,47.4758,14.5201
		c-3.5386,23.0353-4.5215,42.7151-2.2609,43.3968c2.2609,0.6821,7.536-21.123,7.536-21.123
		c1.4735-0.8564,2.6592-2.4775,3.6236-4.6171c5.9386-13.1772,3.1588-46.757,3.1588-52.6192c0-6.8135-10.5505-18.3974-15.072-18.3974
		s-0.7533-19.0783-31.6502-27.2548c-30.8965-8.1765-58.0256-4.0883-73.0972,3.4073c-15.072,7.4945-26.3754,20.4409-33.1578,22.4856
		c-6.782,2.0436,2.2609,6.8139-3.0146,11.5831c-5.2747,4.7699,3.7682,10.9018,5.2755,20.442
		c1.2651,8.0044,4.1209,30.8279,6.7883,39.994c0.5111,1.7569,1.0159,3.0661,1.5013,3.6139
		C192.8641,206.7752,196.6319,224.021,199.6465,222.6583z"/>
	<path id="XMLID_7862_" class="st8" d="M345.8361,339.791c7.4095,13.2606,7.8127,21.3919,13.0507,25.2928
		c4.9561,3.6895-36.0092,6.6017-40.4442,6.9051c-0.0327,0.0898-0.0634,0.1754-0.0964,0.2652l28.7213,21.679
		c0,0-24.9757,34.0027-38.3502,53.9088c-4.7028,6.9967-16.4743,27.1932-23.0464,38.7166c-1.8574,3.256-5.5039,10.0977-9.571,17.7446
		c39.0085-2.9864,75.498-14.9125,107.4241-33.7861c4.0475-49.0202,15.4407-115.1915,37.5788-111.384
		c-8.8037-3.7281-33.3366-8.6256-49.9578-15.378c-14.3662-5.8359-25.7857-13.1675-32.8837-13.2932
		C340.9809,332.9738,343.7288,336.0206,345.8361,339.791z"/>
	<path id="XMLID_7861_" d="M320.5496,319.1732c0.4354,0.326,0.919,0.7707,1.4112,1.3871c1.1487,1.4379,2.2116,3.7244,2.0351,7.292
		c-0.0237,0.4744,0.1402,1.2758,0.257,2.433c0.4098,4.0601,0.2114,12.7402-10.9348,29.1645
		c-7.1039,10.4693-22.8539,58.0801-35.6305,101.8512c-4.5689,15.6539-8.7521,30.7979-12.0282,43.5934
		c3.5004-0.1213,6.9782-0.326,10.4404-0.5912c4.0671-7.6469,7.7137-14.4886,9.571-17.7446
		c6.5721-11.5234,18.3436-31.7199,23.0464-38.7166c13.3745-19.9061,38.3502-53.9088,38.3502-53.9088l-28.7213-21.679l-0.3149-0.237
		c0,0,0.158-0.0111,0.4113-0.0282c4.435-0.3034,45.4003-3.2156,40.4442-6.9051c-5.238-3.901-5.6412-12.0323-13.0507-25.2928
		c-2.1074-3.7704-4.8553-6.8172-7.575-9.3292c-3.7029-3.4199-7.3498-5.8159-9.2291-7.4103
		c-5.2039-4.4161-8.2707-4.6976-9.2684-4.6461c-0.2362,0.0126-0.392,0.0378-0.392,0.0378S319.8849,318.6744,320.5496,319.1732z"/>
	<path id="XMLID_7860_" class="st9" d="M136.7426,474.3308c30.7823,16.9431,65.5323,27.5256,102.4976,30.1017
		c-3.9896-9.0196-7.0624-15.7733-8.2603-17.8741c-6.5732-11.5234-18.3436-31.7199-23.046-38.7166
		c-13.3745-19.9061-38.3506-53.9088-38.3506-53.9088l29.0362-21.916c0,0-46.0943-3.0334-40.8566-6.9333
		c5.2387-3.901,5.6419-12.0323,13.0522-25.2928c2.1749-3.8917,5.0318-7.0131,7.8353-9.5674
		c-7.0424,2.0788-16.7287,7.7726-28.353,12.4948c-18.3351,7.4492-46.2868,12.6397-52.1382,16.4943
		C121.3535,353.701,132.9421,424.5003,136.7426,474.3308z"/>
	<path id="XMLID_7859_" d="M170.815,339.791c-7.4103,13.2606-7.8134,21.3919-13.0522,25.2928
		c-5.2376,3.8998,40.8566,6.9333,40.8566,6.9333l-29.0362,21.916c0,0,24.9761,34.0027,38.3506,53.9088
		c4.7024,6.9967,16.4728,27.1932,23.046,38.7166c1.198,2.1007,4.2707,8.8545,8.2603,17.8741
		c4.8497,0.3386,9.7313,0.5548,14.6529,0.6119c-4.5459-15.0253-9.4572-30.8034-14.3966-46.23
		c-15.0846-47.1123-30.4014-90.873-36.1638-99.3648c-11.6647-17.1886-11.3424-25.9174-10.8777-29.7205
		c0.1061-0.8664,0.2196-1.4806,0.1999-1.877c-0.1565-3.1603,0.6665-5.2899,1.6523-6.7449c0.8452-1.2469,1.7776-1.9831,2.3763-2.3425
		c0.3449-0.2073,0.596-0.3216,0.596-0.3216s-0.0942-0.0163-0.2359-0.0297c-0.8145-0.0816-3.944-0.0137-9.4249,4.6379
		c-1.8359,1.5573-5.3567,3.8817-8.9684,7.1721C175.8468,332.778,172.9899,335.8994,170.815,339.791z"/>
	<path id="XMLID_7858_" d="M136.7426,474.3308c-3.8005-49.8305-15.3891-120.6298-38.5835-115.1181
		c-0.951,0.2255-1.9208,0.5749-2.9114,1.0637c-5.3259,2.634-10.7067,30.3698-17.4464,69.0049
		C95.0422,447.0597,114.8778,462.2968,136.7426,474.3308z"/>
	<path id="XMLID_7857_" d="M383.5239,470.5171c21.4924-12.705,40.9367-28.5028,57.657-46.846
		c-6.2846-35.6869-11.3987-60.89-16.4632-63.3945c-1.2395-0.612-2.4367-0.9417-3.615-1.1435
		C398.9646,355.3255,387.5714,421.4969,383.5239,470.5171z"/>
</g>
</svg>
