<svg width="322" height="132" viewBox="0 0 322 132" fill="none" xmlns="http://www.w3.org/2000/svg">
<g id="Group">
<g id="Group 3">
<mask id="mask0" mask-type="alpha" maskUnits="userSpaceOnUse" x="0" y="0" width="322" height="132">
<rect id="Mask" x="0.5" width="321" height="132" fill="white"/>
</mask>
<g mask="url(#mask0)">
<g id="Group_2">
<g id="Group_3">
<g id="Group_4">
<path id="Path" d="M222.757 127.913C222.729 128.356 222.707 128.838 222.959 129.208C223.245 129.633 223.799 129.774 224.298 129.88C235.316 132.183 247.287 133.187 258.422 131.657C258.45 127.028 258.523 122.555 258.237 117.876C258.058 114.99 257.873 112.064 256.976 109.313C254.41 101.456 243.835 97.555 236.168 97.9417C231.225 98.1883 227.599 100.352 225.895 105.166C223.463 112.064 223.245 120.656 222.757 127.913Z" fill="black" stroke="black" stroke-width="1.12084" stroke-linecap="round" stroke-linejoin="round"/>
<path id="Path_2" d="M232.486 60.4554C228.451 59.951 224.309 60.3545 220.448 61.6155C216.895 62.7755 214.861 65.6337 213.925 69.1979C211.638 77.8957 210.534 86.9072 210.646 95.902C210.658 96.8491 210.691 97.8298 211.106 98.6817C211.907 100.329 213.886 101.019 215.696 101.304C217.719 101.624 219.776 101.635 221.827 101.652C224.001 101.663 226.305 101.646 228.148 100.492C229.768 99.4831 230.777 97.7514 231.617 96.0365C235.776 87.5349 237.182 77.9461 237.636 68.4918C237.715 66.8722 237.76 65.2134 237.266 63.6722C236.56 61.481 234.61 60.7188 232.486 60.4554Z" fill="white" stroke="black" stroke-width="1.12084" stroke-linecap="round" stroke-linejoin="round"/>
<g id="Group_5">
<path id="Path_3" d="M256.926 59.4298C255.99 60.007 255.054 60.5786 254.113 61.1503C252.308 62.2375 248.559 64.5632 246.345 63.3471C244.087 62.1086 244.798 58.4098 246.059 56.7454C247.219 55.2154 248.929 54.2179 250.599 53.282C254.488 51.1075 270.763 43.6203 272.433 42.6732C278.401 39.2827 284.437 36.0042 290.54 32.8546C291.896 32.1541 293.269 31.4536 294.732 31.0109C295.774 30.697 296.856 30.5177 297.943 30.4785C298.263 30.4673 298.666 30.5177 298.773 30.8203C298.896 31.1622 298.526 31.4648 298.207 31.6385C296.665 32.4848 295.074 33.2413 293.443 33.8914C292.939 34.0932 292.401 34.3061 292.092 34.7545C291.661 35.3765 291.812 36.206 291.79 36.9625C291.722 38.9856 290.047 40.835 288.04 41.104C286.135 41.3562 284.056 40.3531 282.341 41.2217C280.923 41.9335 261.701 56.4708 256.926 59.4298Z" fill="white" stroke="black" stroke-width="1.12084" stroke-linecap="round" stroke-linejoin="round"/>
<g id="Group_6">
<path id="Path_4" d="M227.481 70.3297C228.075 68.5195 228.81 66.7598 229.746 65.1009C232.385 60.4102 237.412 55.9212 242.815 54.9405C248.805 53.8533 252.123 63.0666 253.479 67.281C257.436 79.7839 256.965 92.4831 257.262 105.395C257.268 105.659 257.262 105.956 257.077 106.146C256.915 106.309 256.657 106.337 256.427 106.353C247.304 107.032 238.04 107.698 229.084 105.832C227.812 105.569 226.473 105.205 225.61 104.235C224.668 103.176 224.517 101.652 224.45 100.239C224.259 96.3107 224.365 92.371 224.758 88.4592C225.133 84.7268 225.234 80.888 225.856 77.1948C226.237 74.8803 226.747 72.5657 227.481 70.3297Z" fill="white" stroke="black" stroke-width="1.12084" stroke-linecap="round" stroke-linejoin="round"/>
<path id="Path_5" d="M233.063 63.2794C232.15 61.7774 230.777 60.5557 229.09 60.1354C229.622 60.2699 231.309 59.5133 231.937 59.4125C233.002 59.2443 233.657 59.1827 234.627 59.5638C240.87 62.0128 242.45 68.8724 242.075 74.9361C241.498 84.2391 240.663 92.8752 233.909 100.065C233.304 100.71 232.654 101.337 231.87 101.741C228.412 103.523 221.53 99.9757 221.115 96.0303C221.098 95.8958 221.104 95.7389 221.21 95.6492C221.283 95.5932 221.378 95.582 221.474 95.582C223.049 95.5259 224.517 96.2993 226.086 95.9407C227.537 95.61 229.706 94.562 230.681 93.4244C231.332 92.6622 231.645 91.6815 231.926 90.7231C233.792 84.3456 234.722 77.6878 234.677 71.0412C234.66 68.8387 234.532 66.5858 233.702 64.5403C233.523 64.1032 233.31 63.6829 233.063 63.2794Z" fill="white" stroke="black" stroke-width="1.12084" stroke-linecap="round" stroke-linejoin="round"/>
</g>
<path id="Path_6" d="M252.543 35.2253C253.065 38.0946 252.672 40.6053 251.742 43.4915C250.672 46.8091 247.881 49.9811 247.965 54.0722C248.021 56.6557 249.489 60.3769 247.909 62.7195C247.175 63.8123 245.779 64.3727 244.462 64.2662C243.145 64.1598 241.923 63.4536 241.027 62.4841C239.295 60.6179 239.149 57.9671 237.384 56.1233C235.815 54.4813 233.691 53.4781 231.64 52.5759C227.123 50.592 225.032 48.1429 222.936 43.7044C220.246 38.0049 220.471 30.8596 224.068 25.6813C227.302 21.0298 233.909 18.3174 239.48 19.5783C245.824 21.013 250.66 27.979 252.246 33.9139C252.364 34.3678 252.465 34.7993 252.543 35.2253Z" fill="white" stroke="black" stroke-width="1.12084" stroke-linecap="round" stroke-linejoin="round"/>
<path id="Path_7" d="M231.152 39.2096C231.219 39.8989 231.41 40.5771 231.729 41.1991C232.716 43.127 234.829 44.4047 236.997 44.4552C240.354 44.528 242.635 41.8492 242.764 38.7221C242.792 38.0888 242.787 37.4387 242.568 36.8391C242.321 36.1778 241.828 35.6398 241.307 35.1634C238.757 32.8208 234.655 32.2716 232.346 35.0849C231.416 36.2282 231.006 37.7469 231.152 39.2096Z" fill="black" stroke="black" stroke-width="1.12084" stroke-linecap="round" stroke-linejoin="round"/>
<path id="Path_8" d="M245.185 33.5773C245.252 34.2666 245.443 34.9447 245.762 35.5668C246.749 37.4946 248.861 38.7724 251.03 38.8228C254.387 38.8957 256.668 36.2169 256.797 33.0897C256.825 32.4565 256.819 31.8064 256.601 31.2067C256.354 30.5454 255.861 30.0074 255.34 29.5311C252.79 27.1885 248.688 26.6393 246.379 29.4526C245.443 30.5903 245.039 32.1146 245.185 33.5773Z" fill="black" stroke="black" stroke-width="1.12084" stroke-linecap="round" stroke-linejoin="round"/>
<path id="Path_9" d="M240.803 35.9311C241.867 34.9224 243.28 34.2947 244.742 34.1826" stroke="black" stroke-width="1.12084" stroke-linecap="round" stroke-linejoin="round"/>
<path id="Path_10" d="M244.053 34.3174C244.815 35.7857 245.572 37.2484 246.334 38.7167C246.771 39.5629 247.225 40.454 247.219 41.4067C247.214 42.3594 246.592 43.385 245.645 43.4915" stroke="black" stroke-width="1.12084" stroke-linecap="round" stroke-linejoin="round"/>
<path id="Path_11" d="M240.803 46.3721C241.559 47.0614 242.49 47.5938 243.504 47.7395C244.518 47.8908 245.617 47.6274 246.362 46.9269" stroke="black" stroke-width="1.12084" stroke-linecap="round" stroke-linejoin="round"/>
<path id="Path_12" d="M228.16 55.6075C232.144 56.4593 236.829 54.3465 238.023 50.4516C235.07 51.1017 231.959 49.6894 229.83 47.5374C226.461 44.13 223.368 38.5371 226.826 34.1826C229.813 30.4222 235.064 28.9258 239.284 27.0709C241.262 26.2022 243.078 25.2999 244.445 24.2127C245.118 23.6803 245.774 23.0414 245.981 22.212C246.143 21.5451 245.992 20.839 245.729 20.2057C244.731 17.8295 242.271 16.3948 239.816 15.6215C232.077 13.1724 222.796 16.888 218.223 23.5402C215.427 27.6089 214.575 32.804 215.197 37.6964C215.483 39.9325 215.886 42.6001 216.598 44.7129C218.414 50.1209 222.527 54.4026 228.16 55.6075Z" fill="black" stroke="black" stroke-width="1.12084" stroke-linecap="round" stroke-linejoin="round"/>
<path id="Path_13" d="M216.828 39.3497C218.38 38.8902 219.944 38.1504 221.345 37.6741C221.625 37.5788 221.944 37.4387 222.023 37.1473C222.068 36.9791 222.023 36.8054 221.973 36.6373C221.804 36.0601 221.597 35.494 221.35 34.9448C221.227 34.6646 221.065 34.3676 220.773 34.2779C220.555 34.2107 220.319 34.2891 220.106 34.3676C218.767 34.8552 217.377 35.197 216.06 35.7406C215.203 36.0937 213.241 36.8839 212.882 37.8198C212.451 38.9574 213.353 39.7532 214.373 39.7532C215.175 39.7588 215.998 39.5963 216.828 39.3497Z" fill="#FF3333" stroke="#FF3333" stroke-width="1.12084" stroke-linecap="round" stroke-linejoin="round"/>
<path id="Path_14" d="M224.791 26.6788C223.004 27.6819 221.093 28.5562 219.361 29.6154C218.862 29.918 218.369 30.3271 218.229 30.8931C218.156 31.1845 218.19 31.4872 218.223 31.7842C218.307 32.58 218.391 33.3758 218.475 34.166C218.565 35.0178 218.677 35.9201 219.204 36.5982C220.784 38.6213 230.609 32.5968 232.071 31.8346C238.695 28.3824 245.152 24.6164 251.68 20.9961C254.628 19.3597 257.526 17.5719 260.344 15.7169C263.847 13.408 260.765 12.091 257.991 13.4921C255.183 14.9155 252.286 16.1709 249.327 17.2413C249.03 17.3478 248.716 17.4542 248.402 17.4206C246.177 17.146 246.026 15.022 243.397 16.5464C237.3 20.0714 230.962 23.2098 224.791 26.6788Z" fill="#FF3333" stroke="#FF3333" stroke-width="1.12084" stroke-linecap="round" stroke-linejoin="round"/>
<g id="Path_15">
<path d="M229.51 87.9159C229.46 88.0784 229.404 88.2466 229.353 88.4091C230.295 85.9769 231.326 83.5783 232.262 81.146C232.766 79.829 233.366 78.484 233.467 77.0606C233.584 75.4914 232.884 74.5387 232.346 73.16C231.729 71.574 232.643 68.9681 234.627 69.0185C235.888 69.0466 237.149 69.7471 237.855 70.7839C238.992 72.4539 238.998 74.6452 238.69 76.6402C238.191 79.8627 234.19 93.0213 232.34 95.9579C231.825 96.7818 231.253 97.5944 230.474 98.1716C229.695 98.7488 228.67 99.0683 227.734 98.7993C226.187 98.3509 225.503 96.5744 225.133 95.0052C223.166 86.6886 224.5 78.7923 226.271 70.6157C226.658 68.8336 227.089 67.0234 228.014 65.4543C228.574 64.5015 229.331 63.6385 230.317 63.1397C233.119 61.7219 235.417 64.7481 234.991 67.4942" fill="white"/>
<path d="M229.51 87.9159C229.46 88.0784 229.404 88.2466 229.353 88.4091C230.295 85.9769 231.326 83.5783 232.262 81.146C232.766 79.829 233.366 78.484 233.467 77.0606C233.584 75.4914 232.884 74.5387 232.346 73.16C231.729 71.574 232.643 68.9681 234.627 69.0185C235.888 69.0466 237.149 69.7471 237.855 70.7839C238.992 72.4539 238.998 74.6452 238.69 76.6402C238.191 79.8627 234.19 93.0213 232.34 95.9579C231.825 96.7818 231.253 97.5944 230.474 98.1716C229.695 98.7488 228.67 99.0683 227.734 98.7993C226.187 98.3509 225.503 96.5744 225.133 95.0052C223.166 86.6886 224.5 78.7923 226.271 70.6157C226.658 68.8336 227.089 67.0234 228.014 65.4543C228.574 64.5015 229.331 63.6385 230.317 63.1397C233.119 61.7219 235.417 64.7481 234.991 67.4942" stroke="black" stroke-width="1.12084" stroke-linecap="round" stroke-linejoin="round"/>
</g>
<path id="Path_16" d="M242.428 76.2422C247.83 76.4776 250.1 76.5784 255.502 76.8138" stroke="black" stroke-width="1.12084" stroke-linecap="round" stroke-linejoin="round"/>
<path id="Path_17" d="M242.131 84.7829C248.475 85.3714 249.551 85.3938 255.912 85.1024" stroke="black" stroke-width="1.12084" stroke-linecap="round" stroke-linejoin="round"/>
<path id="Path_18" d="M238.864 92.9429C245.987 93.8451 248.436 93.9012 255.615 93.8059" stroke="black" stroke-width="1.12084" stroke-linecap="round" stroke-linejoin="round"/>
</g>
<path id="Path_19" d="M232.598 38.1279C229.79 40.5209 226.977 42.9139 224.169 45.3125" stroke="black" stroke-width="1.12084" stroke-linecap="round" stroke-linejoin="round"/>
</g>
<g id="Group_7">
<g id="Group_8">
<g id="Path_20">
<path d="M14.5217 111.112C14.1967 119.333 13.8716 127.554 13.5466 135.776C13.5242 136.381 13.513 137.042 13.7539 137.513C14.0005 137.984 14.4265 138.101 14.8187 138.186C26.6044 140.668 38.5189 141.666 50.411 141.167C51.7056 141.111 53.1235 140.971 54.0762 139.609C55.0065 138.292 55.2419 136.196 55.3764 134.251C55.8079 127.963 55.7014 121.586 55.0513 115.343C54.8776 113.667 54.603 111.84 53.7231 110.837C53.1347 110.164 52.3781 109.991 51.6496 109.862C39.382 107.704 26.8846 113.297 14.6898 110.271" fill="black"/>
<path d="M14.5217 111.112C14.1967 119.333 13.8716 127.554 13.5466 135.776C13.5242 136.381 13.513 137.042 13.7539 137.513C14.0005 137.984 14.4265 138.101 14.8187 138.186C26.6044 140.668 38.5189 141.666 50.411 141.167C51.7056 141.111 53.1235 140.971 54.0762 139.609C55.0065 138.292 55.2419 136.196 55.3764 134.251C55.8079 127.963 55.7014 121.586 55.0513 115.343C54.8776 113.667 54.603 111.84 53.7231 110.837C53.1347 110.164 52.3781 109.991 51.6496 109.862C39.382 107.704 26.8846 113.297 14.6898 110.271" stroke="black" stroke-width="1.12084" stroke-linecap="round" stroke-linejoin="round"/>
</g>
<path id="Path_21" d="M7.98723 65.6C4.05308 71.4004 1.77217 77.8677 1.21735 85.2484C1.02121 87.8375 0.909123 90.4659 1.45273 93.0046C2.02996 95.6834 3.39739 97.9867 5.5438 99.696C7.62856 101.355 9.79739 100.991 12.3977 100.996C12.3865 103.423 12.3809 105.855 12.3697 108.282C12.3641 110.428 12.0167 112.238 14.2023 112.81C15.7715 113.219 17.7105 113.028 19.3189 113.051C22.9336 113.096 26.554 112.939 30.1687 113C38.0762 113.141 46.023 113.32 53.9305 112.916C54.3004 112.9 54.6758 112.877 55.0065 112.709C55.8247 112.3 56.004 111.229 56.0489 110.316C56.245 106.483 55.892 102.616 55.0121 98.8778C56.0601 101.091 58.823 102.179 61.2216 101.686C63.6202 101.192 65.5984 99.3654 66.7305 97.1965C67.8681 95.0277 68.2548 92.5395 68.3613 90.096C68.8825 78.2207 63.0373 66.648 54.4629 58.4099C49.9739 54.089 44.5491 50.4799 38.4293 49.2526C28.7508 47.3135 19.5599 52.6543 13.0534 59.4018C11.1368 61.3857 9.44993 63.448 7.98723 65.6Z" fill="white" stroke="black" stroke-width="1.12084" stroke-linecap="round" stroke-linejoin="round"/>
<path id="Path_22" d="M11.1144 96.95C10.5147 98.8555 10.666 101.125 12.0111 102.605C12.7676 103.434 13.8268 103.944 14.914 104.213C16.2983 104.561 17.817 104.538 19.1004 103.916C20.3837 103.288 21.3757 101.988 21.4093 100.565C21.4037 100.912 18.7193 99.6681 18.5175 99.5112C17.4808 98.721 16.8755 97.6562 16.5673 96.4064C16.3039 95.3192 16.231 92.7413 15.1494 92.0968C13.272 90.9872 11.5459 95.5882 11.1144 96.95Z" fill="white" stroke="black" stroke-width="1.12084" stroke-linecap="round" stroke-linejoin="round"/>
<path id="Path_23" d="M14.4489 94.54C14.4993 95.9354 14.6562 97.3253 14.9084 98.6983C14.9757 99.0682 15.0654 99.4605 15.34 99.7127C15.5865 99.9424 15.9396 100.015 16.2703 100.083C18.271 100.469 20.3221 100.856 22.3284 100.531C24.3403 100.206 26.3354 99.0177 27.0471 97.1067C27.1312 96.8713 27.2209 96.6135 27.4338 96.4902C27.5795 96.4118 27.7533 96.4118 27.9158 96.4174C35.1004 96.5631 42.3242 97.0058 49.5424 96.8545C49.9851 96.8433 50.4671 96.8209 50.8146 96.5407C51.1676 96.2493 51.2853 95.7617 51.3582 95.3134C51.7168 93.1501 53.4205 87.0191 51.0163 85.4668C50.4727 85.1137 49.789 85.0969 49.1445 85.0913C43.4282 85.0353 37.7119 85.0577 32.0013 85.1642C26.6324 85.2594 20.8937 84.8223 15.5865 85.3491C14.7179 88.3249 14.3368 91.4409 14.4489 94.54Z" fill="black" stroke="black" stroke-width="1.12084" stroke-linecap="round" stroke-linejoin="round"/>
<g id="Path_24">
<path d="M34.1533 95.6107C34.1533 98.8275 34.1533 102.044 34.1533 105.267C34.1533 105.541 34.1589 105.833 34.2878 106.079C34.5119 106.505 35.0443 106.657 35.5151 106.757C38.362 107.352 41.2986 107.52 44.196 107.262C44.4314 107.239 44.6779 107.211 44.8797 107.088C45.3168 106.819 45.3841 106.219 45.4009 105.71C45.5186 102.588 45.6363 99.4664 45.754 96.3505C45.7596 96.1655 45.7652 95.9638 45.6475 95.8181C45.5018 95.6331 45.2384 95.6107 45.003 95.6051C41.2258 95.5043 37.4485 95.409 33.6713 95.3081" fill="black"/>
<path d="M34.1533 95.6107C34.1533 98.8275 34.1533 102.044 34.1533 105.267C34.1533 105.541 34.1589 105.833 34.2878 106.079C34.5119 106.505 35.0443 106.657 35.5151 106.757C38.362 107.352 41.2986 107.52 44.196 107.262C44.4314 107.239 44.678 107.211 44.8797 107.088C45.3168 106.819 45.3841 106.219 45.4009 105.71C45.5186 102.588 45.6363 99.4664 45.754 96.3505C45.7596 96.1655 45.7652 95.9638 45.6475 95.8181C45.5018 95.6331 45.2384 95.6107 45.003 95.6051C41.2258 95.5043 37.4485 95.409 33.6713 95.3081" stroke="black" stroke-width="1.12084" stroke-linecap="round" stroke-linejoin="round"/>
</g>
<path id="Path_25" d="M49.5929 83.7296C49.7554 83.8137 49.9235 83.8865 50.086 83.9482C51.3806 84.4525 52.2997 85.4277 52.776 86.7559C53.6055 89.076 53.0955 92.3825 52.4454 94.6746C51.9578 96.4007 46.8972 100.688 52.0923 99.3989C54.8384 98.7208 56.6934 95.5376 57.6965 93.0942C59.9774 87.5012 57.8534 81.9867 51.6048 80.8434C50.9323 80.7201 50.2373 80.5968 49.576 80.7762C48.9147 80.9499 48.3039 81.5159 48.3151 82.1996C48.3207 82.9058 48.926 83.3989 49.5929 83.7296Z" fill="white" stroke="black" stroke-width="1.12084" stroke-linecap="round" stroke-linejoin="round"/>
<path id="Path_26" d="M20.5294 54.2739C21.6615 56.6725 24.9568 65.9755 28.1007 66.3734C28.7396 66.4519 34.1028 62.7811 35.941 60.8421C37.8857 62.428 42.7109 66.3118 43.2489 66.1773C43.5795 66.0932 48.3095 60.6963 50.9659 55.8823" stroke="black" stroke-width="1.12084" stroke-linecap="round" stroke-linejoin="round"/>
<path id="Path_27" d="M37.7848 70.5094C38.1603 69.0242 36.0699 68.4246 35.7112 69.6855C35.2797 71.1875 37.4205 71.944 37.7848 70.5094Z" fill="black" stroke="black" stroke-width="1.12084" stroke-linecap="round" stroke-linejoin="round"/>
<path id="Path_28" d="M37.7848 78.5401C38.1603 77.055 36.0699 76.4554 35.7112 77.7163C35.2797 79.2182 37.4205 79.9748 37.7848 78.5401Z" fill="black" stroke="black" stroke-width="1.12084" stroke-linecap="round" stroke-linejoin="round"/>
<path id="Path_29" d="M33.1277 64.0869C33.2118 69.6967 32.9315 75.2953 32.8026 80.9219" stroke="black" stroke-width="1.12084" stroke-linecap="round" stroke-linejoin="round"/>
<path id="Path_30" d="M22.2555 51.584C19.5823 52.4807 17.6265 54.8064 16.2366 57.261C12.0503 64.6698 11.9326 73.6197 11.9214 82.1325C11.9214 84.929 12.3305 88.3756 14.9308 89.4011" stroke="black" stroke-width="1.12084" stroke-linecap="round" stroke-linejoin="round"/>
<path id="Path_31" d="M49.2342 52.7217C52.8993 55.3164 54.4797 58.7238 55.1242 63.1679C55.7687 67.612 54.5133 72.3084 51.728 75.8334C50.7361 77.0888 49.5648 78.204 48.6794 79.5322C47.7883 80.8604 47.1886 82.4968 47.5361 84.0548" stroke="black" stroke-width="1.12084" stroke-linecap="round" stroke-linejoin="round"/>
</g>
<g id="Group_9">
<path id="Path_32" d="M16.0292 43.1499C16.2478 43.7663 16.5504 44.4164 16.9595 45.1113C18.3382 47.4651 20.8881 48.67 23.5557 48.8157C24.7886 48.883 31.5865 46.2882 31.6538 46.3386C34.3774 48.3674 37.5102 49.9478 40.8783 50.3793C44.2464 50.8108 47.8611 49.9814 50.383 47.7117C52.9049 45.442 54.0986 41.6311 52.8713 38.4647C52.3725 37.1814 51.5151 36.0549 50.5511 35.0742C48.0629 32.5467 44.7284 30.8654 41.2201 30.3555C36.8152 29.7222 32.3711 30.8879 28.1063 32.1712C22.3228 33.9085 13.5746 36.2119 16.0292 43.1499Z" fill="black" stroke="black" stroke-width="1.12084" stroke-linecap="round" stroke-linejoin="round"/>
<path id="Path_33" d="M21.6166 46.316C22.6142 50.5584 24.7438 54.6439 28.1624 57.3507C31.5809 60.0575 36.3837 61.184 40.4524 59.6204C49.8282 56.0281 51.2685 42.9535 49.2566 34.6537C47.1382 25.9223 38.065 23.5854 30.2359 26.791C27.2601 28.0127 24.5588 30.0358 22.8328 32.7482C22.1603 33.8074 22.1715 34.2726 21.1347 34.6705C20.0643 35.0796 19.0443 34.5024 18.0748 35.4943C17.5256 36.0547 17.307 36.8561 17.1725 37.6295C17.038 38.3861 16.9764 39.1931 17.3014 39.8824C17.8618 41.0705 19.3189 41.4908 20.6191 41.7206C20.8377 43.2113 21.2692 44.8421 21.6166 46.316Z" fill="white" stroke="black" stroke-width="1.12084" stroke-linecap="round" stroke-linejoin="round"/>
<g id="Group_10">
<path id="Path_34" d="M26.7165 43.2676C27.0975 44.5509 28.28 45.5597 29.6026 45.7334C30.9308 45.9128 32.3319 45.2459 33.038 44.1082" stroke="black" stroke-width="1.12084" stroke-linecap="round" stroke-linejoin="round"/>
<path id="Path_35" d="M44.0446 43.3911C44.9301 45.3862 47.9059 45.4086 49.6825 44.8818" stroke="black" stroke-width="1.12084" stroke-linecap="round" stroke-linejoin="round"/>
</g>
<path id="Path_36" d="M38.9168 41.4404C38.9897 43.0096 38.9729 44.5788 38.8664 46.148C38.8384 46.5851 38.7935 47.0334 38.5638 47.4089C38.334 47.7844 37.8632 48.0534 37.4373 47.9133" stroke="black" stroke-width="1.12084" stroke-linecap="round" stroke-linejoin="round"/>
<path id="Path_37" d="M34.2205 51.0293C35.2012 52.2342 36.4734 53.1757 37.8688 53.3775C39.2643 53.5792 40.7942 52.9459 41.59 51.5617" stroke="black" stroke-width="1.12084" stroke-linecap="round" stroke-linejoin="round"/>
<path id="Path_38" d="M40.8615 13.7949C41.4219 13.4026 41.9823 12.9319 42.666 12.859C44.0503 12.7133 44.9862 14.204 45.5298 15.4874C46.645 18.1214 47.6145 20.817 48.4328 23.563C49.1445 25.9616 49.9291 28.6461 52.1147 29.8734C53.073 30.4114 54.2051 30.5963 55.1354 31.1792C59.9942 34.2391 46.2471 39.294 44.5042 39.8601C36.9329 42.3315 29.1431 40.7399 21.8072 38.5431C19.0835 37.7249 14.0342 35.5785 15.4576 31.8349C15.9172 30.6243 17.9347 30.1032 18.7697 29.1168C19.7 28.0184 20.1539 26.5221 20.5855 25.1827C21.3813 22.6944 22.1827 20.2061 22.9785 17.7179C23.3988 16.4065 24.1553 14.9886 25.1249 14.0079C26.5876 12.5228 27.3778 12.8366 29.0366 13.7669C32.7354 15.8405 37.2131 16.3673 40.8615 13.7949Z" fill="white" stroke="black" stroke-width="1.12084" stroke-linecap="round" stroke-linejoin="round"/>
<g id="Group_11">
<path id="Path_39" d="M28.0447 48.8771C28.0391 49.2133 28.2576 49.5272 28.5434 49.7065C28.8292 49.8858 29.1711 49.9475 29.5074 49.9811C29.8548 50.0091 30.2359 49.9979 30.5161 49.785C30.9532 49.4543 30.9308 48.5744 30.5666 48.1766C29.9613 47.504 28.0615 47.8291 28.0447 48.8771Z" fill="#FF8585" stroke="#FF8585" stroke-width="1.12084" stroke-linecap="round" stroke-linejoin="round"/>
<path id="Path_40" d="M46.3704 47.5601C45.5858 47.8347 45.087 48.6642 45.9781 49.4432C46.2471 49.6785 46.6002 49.785 46.942 49.8523C47.1774 49.8971 47.424 49.9307 47.6538 49.8467C48.528 49.5272 48.5168 48.2999 47.8275 47.7619C47.396 47.4256 46.8355 47.3976 46.3704 47.5601Z" fill="#FF8585" stroke="#FF8585" stroke-width="1.12084" stroke-linecap="round" stroke-linejoin="round"/>
</g>
</g>
<g id="Path_41">
<path d="M19.7505 28.6462C23.9816 30.2994 28.0167 31.3082 32.5056 31.863C34.809 32.1488 37.0002 32.2889 39.3371 31.9863C42.6268 31.5604 45.7932 30.5068 48.9428 29.4644C49.2454 29.3635 49.5872 29.2234 49.6825 28.9208C49.7498 28.7134 49.6713 28.4893 49.5984 28.2875C49.1221 26.9537 48.6457 25.6199 48.1638 24.2861C48.0349 23.933 42.7165 25.4125 42.1785 25.4966C39.948 25.8553 37.6839 26.0178 35.4254 25.9786C30.8244 25.9001 26.2345 24.9978 21.9585 23.2773C21.4373 24.953 20.9105 26.6287 20.3893 28.3043" fill="#FF3333"/>
<path d="M19.7505 28.6462C23.9816 30.2994 28.0167 31.3082 32.5056 31.863C34.809 32.1488 37.0002 32.2889 39.3371 31.9863C42.6268 31.5604 45.7932 30.5068 48.9428 29.4644C49.2454 29.3635 49.5872 29.2234 49.6825 28.9208C49.7498 28.7134 49.6713 28.4893 49.5984 28.2875C49.1221 26.9537 48.6457 25.6199 48.1638 24.2861C48.0349 23.933 42.7165 25.4125 42.1785 25.4966C39.948 25.8553 37.6839 26.0178 35.4254 25.9786C30.8244 25.9001 26.2345 24.9978 21.9585 23.2773C21.4373 24.953 20.9105 26.6287 20.3893 28.3043" stroke="#FF3333" stroke-width="1.12084" stroke-linecap="round" stroke-linejoin="round"/>
</g>
</g>
<g id="Group_12">
<g id="Group_13">
<g id="Group_14">
<path id="Path_42" d="M297.971 63.8012C293.942 63.6948 290.714 59.6149 290.674 54.885C290.652 52.3743 291.93 49.9476 293.807 48.541C295.685 47.1343 298.089 46.7084 300.314 47.168C303.396 47.8012 306.31 50.4352 306.68 53.8874C307.039 57.1995 305.038 60.3491 302.539 62.204C300.992 63.3641 299.428 63.8405 297.971 63.8012Z" fill="black" stroke="black" stroke-width="0.880028" stroke-linecap="round" stroke-linejoin="round"/>
<g id="Group_15">
<path id="Path_43" d="M308.328 90.186C309.807 87.6192 311.236 83.7916 311.292 80.8157C312.01 80.8325 312.895 80.8438 313.517 80.4122C314.111 80.0031 314.397 79.2522 314.403 78.5292C314.408 77.8063 314.173 77.1057 313.904 76.4388C312.817 73.7376 311.287 71.6529 309.095 69.9212C307.336 68.5313 306.047 66.6931 303.794 65.8021C299.518 64.1096 294.581 64.5467 290.613 66.979C288.993 67.9709 287.603 69.2991 286.511 70.8459C286.001 71.5688 285.659 72.8073 285.065 73.407C283.91 74.5726 283.367 73.9842 283.098 75.7047C281.977 82.7884 285.412 92.7975 291.969 96.429C295.023 98.1215 298.167 98.5026 301.39 97.0623C304.926 95.4707 306.428 93.4924 308.328 90.186Z" fill="white" stroke="black" stroke-width="1.04048" stroke-linecap="round" stroke-linejoin="round"/>
<path id="Path_44" d="M286.981 82.396C288.125 83.9708 290.792 84.066 292.042 82.5753" stroke="black" stroke-width="1.04048" stroke-linecap="round" stroke-linejoin="round"/>
<path id="Path_45" d="M302.595 81.9251C303.116 82.7321 304.001 83.2253 304.887 83.2085C305.772 83.1917 306.641 82.6705 307.14 81.8467" stroke="black" stroke-width="1.04048" stroke-linecap="round" stroke-linejoin="round"/>
<path id="Path_46" d="M297.304 81.5947C297.08 83.063 296.862 84.5313 296.637 85.9996C296.593 86.3079 296.548 86.6217 296.671 86.9131C296.794 87.2045 297.147 87.4623 297.54 87.4455" stroke="black" stroke-width="1.04048" stroke-linecap="round" stroke-linejoin="round"/>
<path id="Path_47" d="M294.497 90.2754C295.881 91.8222 298.576 91.9174 300.067 90.4715" stroke="black" stroke-width="1.04048" stroke-linecap="round" stroke-linejoin="round"/>
<path id="Path_48" d="M288.242 87.6867C288.584 88.1518 289.167 88.404 289.744 88.4264C290.927 88.4657 292.019 87.4345 291.011 86.3136C289.991 85.1704 286.813 85.7476 288.242 87.6867Z" fill="#FF8585" stroke="#FF8585" stroke-width="1.04048" stroke-linecap="round" stroke-linejoin="round"/>
<path id="Path_49" d="M304.36 87.8322C306.31 88.2861 307.403 85.6409 305.369 85.5008C304.326 85.428 302.443 86.4311 303.676 87.5295C303.867 87.7033 304.119 87.7761 304.36 87.8322Z" fill="#FF8585" stroke="#FF8585" stroke-width="1.04048" stroke-linecap="round" stroke-linejoin="round"/>
</g>
<path id="Path_50" d="M313.635 75.1105C314.005 74.5949 314.089 73.687 313.971 72.5886C313.82 71.1259 313.321 69.5735 312.805 68.2005C311.679 65.2022 309.88 62.5683 307.151 60.8253C303.021 58.1914 297.271 58.6621 292.944 60.1528C286.286 62.4506 282.705 67.0628 281.187 73.8495C280.968 74.8134 280.856 75.9623 281.54 76.674C282.184 77.3465 283.249 77.3297 284.179 77.2625C289.346 76.8814 294.553 76.3546 299.557 74.9648C300.74 74.6341 301.905 74.2642 303.054 73.8271C304.623 73.2274 306.394 72.7959 307.134 71.1035C308.059 72.6782 309.381 74.012 310.95 74.9479C312.346 75.7774 313.192 75.7157 313.635 75.1105Z" fill="black" stroke="black" stroke-width="1.04048" stroke-linecap="round" stroke-linejoin="round"/>
</g>
<path id="Path_51" d="M311.477 77.313C311.864 77.4307 312.139 77.8286 312.111 78.2321C312.083 78.6356 311.752 78.9886 311.354 79.0503" stroke="black" stroke-width="1.04048" stroke-linecap="round" stroke-linejoin="round"/>
</g>
<g id="Path_52">
<path d="M287.8 93.8228C278.424 100.901 272.696 112.602 272.92 124.36C272.96 126.288 273.15 128.238 273.823 130.043C274.943 133.069 277.437 135.552 280.464 136.667C283.49 137.782 287.004 137.496 289.817 135.922C294.822 133.114 296.918 126.949 297.377 121.233C297.719 116.979 296.929 113.012 296.923 108.825C296.918 104.499 296.934 100.206 296.525 95.9131C296.486 95.4816 296.441 95.0445 296.256 94.6522C296.071 94.2599 295.713 93.9236 295.281 93.89C294.34 93.8115 293.213 97.0059 292.854 97.7961C292.047 99.5839 290.59 102.577 291.218 104.549C291.453 105.3 292.451 105.95 292.804 106.718C293.437 108.08 293.387 109.559 293.202 111.016C292.664 115.287 290.293 120.975 287.805 124.517" fill="white"/>
<path d="M287.8 93.8228C278.424 100.901 272.696 112.602 272.92 124.36C272.96 126.288 273.15 128.238 273.823 130.043C274.943 133.069 277.437 135.552 280.464 136.667C283.49 137.782 287.004 137.496 289.817 135.922C294.822 133.114 296.918 126.949 297.377 121.233C297.719 116.979 296.929 113.012 296.923 108.825C296.918 104.499 296.934 100.206 296.525 95.9131C296.486 95.4816 296.441 95.0445 296.256 94.6522C296.071 94.2599 295.713 93.9236 295.281 93.89C294.34 93.8115 293.213 97.0059 292.854 97.7961C292.047 99.5839 290.59 102.577 291.218 104.549C291.453 105.3 292.451 105.95 292.804 106.718C293.437 108.08 293.387 109.559 293.202 111.016C292.664 115.287 290.293 120.975 287.805 124.517" stroke="black" stroke-width="1.04048" stroke-linecap="round" stroke-linejoin="round"/>
</g>
<g id="Path_53">
<path d="M306.473 93.5708C311.825 94.6468 315.126 99.7186 316.941 104.465C318.931 109.672 319.603 115.276 320.097 120.83C320.489 125.274 320.646 130.161 317.939 133.708C315.445 136.975 310.771 138.259 306.854 137.015C301.244 135.238 298.358 130.62 297.82 125.055C297.439 121.104 297.405 117.131 297.371 113.163C297.343 109.89 297.315 106.617 297.287 103.345C297.265 100.531 297.013 97.6899 296.878 94.871C296.856 94.3778 296.985 93.6997 297.484 93.6941C297.814 93.6885 298.044 94.0191 298.201 94.3106C299.361 96.4345 300.364 98.6426 301.205 100.918C302.471 104.342 300.801 107.172 300.532 110.624C300.218 114.62 301.087 118.717 303.077 122.203C303.816 123.508 305.094 124.887 306.551 124.517" fill="white"/>
<path d="M306.473 93.5708C311.825 94.6468 315.126 99.7186 316.941 104.465C318.931 109.672 319.603 115.276 320.097 120.83C320.489 125.274 320.646 130.161 317.939 133.708C315.445 136.975 310.771 138.259 306.854 137.015C301.244 135.238 298.358 130.62 297.82 125.055C297.439 121.104 297.405 117.131 297.371 113.163C297.343 109.89 297.315 106.617 297.287 103.345C297.265 100.531 297.013 97.6899 296.878 94.871C296.856 94.3778 296.985 93.6997 297.484 93.6941C297.814 93.6885 298.044 94.0191 298.201 94.3106C299.361 96.4345 300.364 98.6426 301.205 100.918C302.471 104.342 300.801 107.172 300.532 110.624C300.218 114.62 301.087 118.717 303.077 122.203C303.816 123.508 305.094 124.887 306.551 124.517" stroke="black" stroke-width="1.04048" stroke-linecap="round" stroke-linejoin="round"/>
</g>
<path id="Path_54" d="M304.573 123.783C304.478 123.705 304.382 123.615 304.281 123.525C303.037 122.376 302.354 120.746 301.844 119.132C300.723 115.59 301.031 112.463 301.031 108.803C301.042 109.061 301.053 109.313 301.065 109.571C303.687 109.279 306.131 105.306 307.156 103.21C308.445 100.57 308.888 97.6002 309.101 94.6692C309.101 94.6468 310.222 95.1176 310.317 95.2016C310.917 95.7284 310.805 96.4738 311.046 97.1967C311.696 99.1862 311.864 100.823 311.909 102.952C312.015 108.097 311.998 113.247 311.858 118.397C311.741 122.348 308.647 127.19 304.573 123.783Z" fill="white" stroke="black" stroke-width="1.04048" stroke-linecap="round" stroke-linejoin="round"/>
<path id="Path_55" d="M286.359 97.2192C286.359 96.6364 286.365 96.0535 286.376 95.4707C285.294 96.2497 284.28 97.1744 283.641 98.3457C282.548 100.335 282.974 103.597 282.823 105.838C282.621 108.775 282.022 120.309 282.582 123.06C283.226 126.232 286.135 127.431 288.629 124.865C289.89 123.565 290.473 121.766 290.983 120.023C292.087 116.268 293.051 112.44 293.325 108.534C289.626 108.304 287.452 104.824 286.746 101.54C286.432 100.133 286.365 98.6763 286.359 97.2192Z" fill="white" stroke="black" stroke-width="1.04048" stroke-linecap="round" stroke-linejoin="round"/>
</g>
<g id="Group_16">
<g id="Group_17">
<g id="Group_18">
<path id="Path_56" d="M162.585 102.688C165.017 105.328 167.371 108.399 170.66 110.019C177.711 113.488 180.44 102.19 180.899 97.3364C181.213 94.0299 182.788 75.4912 176.063 77.5199C175.211 77.7777 174.471 78.3045 173.765 78.8369C171.888 80.2604 170.218 81.8239 168.604 83.5276C166.429 85.8253 164.384 88.252 162.478 90.7795C160.859 92.9371 159.262 95.5038 159.783 98.1546C160.13 99.9199 161.363 101.36 162.585 102.688Z" fill="white" stroke="black" stroke-width="1.12084" stroke-linecap="round" stroke-linejoin="round"/>
<path id="Path_57" d="M173.149 133.523C181.09 133.618 188.969 134.419 196.899 133.086C197.208 133.035 197.544 132.974 197.751 132.738C197.931 132.531 197.97 132.239 198.003 131.965C198.452 128.019 198.906 124.057 198.754 120.089C198.687 118.302 198.446 116.408 197.303 115.034C196.703 114.317 195.896 113.796 195.033 113.426C193.279 112.675 191.34 112.518 189.435 112.389C186.627 112.199 183.724 112.059 181.073 113C176.999 114.446 176.119 117.119 174.914 120.981C173.692 124.898 172.762 128.91 172.246 132.979C172.23 133.114 172.218 133.265 172.297 133.371C172.392 133.5 172.577 133.512 172.734 133.512C172.874 133.517 173.009 133.517 173.149 133.523Z" fill="black" stroke="black" stroke-width="1.12084" stroke-linecap="round" stroke-linejoin="round"/>
<path id="Path_58" d="M172.118 82.1041C171.624 85.9262 171.949 90.0397 172.101 93.3742C172.325 98.4012 172.555 103.434 172.779 108.461C172.925 111.672 173.07 114.9 173.681 118.061C173.754 118.436 173.849 118.84 174.146 119.081C174.46 119.338 174.903 119.338 175.306 119.322C183.259 119.053 191.189 118.206 199.018 116.789C199.304 116.738 199.612 116.671 199.819 116.464C200.032 116.251 200.088 115.931 200.122 115.628C200.464 112.854 200.116 110.052 199.718 107.284C199.158 103.383 198.502 99.4996 197.74 95.6383C196.406 88.8292 194.714 81.9472 191.06 76.046C188.202 71.4281 183.864 69.1865 178.59 71.6859C174.342 73.709 172.689 77.7161 172.118 82.1041Z" fill="white" stroke="black" stroke-width="1.12084" stroke-linecap="round" stroke-linejoin="round"/>
<g id="Group_19">
<g id="Group_20">
<g id="Group_21">
<path id="Path_59" d="M155.406 107.116C155.075 106.348 154.548 105.636 154.044 105.104C151.657 102.593 148.204 101.478 144.932 101.59C144.539 101.601 144.119 101.641 143.811 101.887C143.368 102.24 143.273 102.902 143.245 103.501C143.149 105.558 143.127 108.158 144.859 109.526C146.669 110.955 148.698 112.07 150.822 112.804C151.158 112.922 151.5 113.028 151.847 113.017C153.091 112.984 154.789 110.944 155.417 109.862C155.916 109.01 155.798 108.024 155.406 107.116Z" fill="black" stroke="black" stroke-width="1.12084" stroke-linecap="round" stroke-linejoin="round"/>
<path id="Path_60" d="M154.195 110.075C154.929 109.873 155.484 109.357 155.759 108.416C156.571 105.597 152.906 102.503 150.766 101.495C149.079 100.699 147.442 100.032 145.537 100.335C145.105 100.402 144.663 100.52 144.315 100.789C143.609 101.327 143.446 102.369 143.687 103.226C144.377 105.709 150.978 110.955 154.195 110.075Z" fill="white" stroke="black" stroke-width="1.12084" stroke-linecap="round" stroke-linejoin="round"/>
</g>
<path id="Path_61" d="M150.272 105.485C149.437 104.807 148.597 104.128 147.762 103.456C147.369 103.142 146.977 102.823 146.557 102.554" stroke="#FF3333" stroke-width="0.56042" stroke-linecap="round" stroke-linejoin="round"/>
</g>
<g id="Path_62">
<path d="M163.891 116.643C159.755 119.585 152.901 118.739 148.995 115.825C147.907 115.012 146.77 114.143 146.232 112.894C145.952 112.238 146.019 111.246 146.719 111.1C146.977 111.05 147.246 111.145 147.487 111.246C149.69 112.188 151.69 114.065 154.072 113.841C153.697 113.224 153.45 112.529 153.355 111.812C154.016 111.594 154.677 112.081 155.26 112.468C157.334 113.835 160.085 114.099 162.383 113.146" fill="white"/>
<path d="M163.891 116.643C159.755 119.585 152.901 118.739 148.995 115.825C147.907 115.012 146.77 114.143 146.232 112.894C145.952 112.238 146.019 111.246 146.719 111.1C146.977 111.05 147.246 111.145 147.487 111.246C149.69 112.188 151.69 114.065 154.072 113.841C153.697 113.224 153.45 112.529 153.355 111.812C154.016 111.594 154.677 112.081 155.26 112.468C157.334 113.835 160.085 114.099 162.383 113.146" stroke="black" stroke-width="1.12084" stroke-linecap="round" stroke-linejoin="round"/>
</g>
<g id="Path_63">
<path d="M179.481 91.2279C175.828 100.721 167.612 107.121 158.488 111.616C158.348 111.683 158.202 111.756 158.118 111.885C157.917 112.171 158.09 112.558 158.258 112.86C159.077 114.295 159.895 115.729 160.707 117.164C160.954 117.601 161.234 118.061 161.688 118.274C162.26 118.537 162.927 118.324 163.51 118.094C171.103 115.079 178.271 110.994 184.077 105.132C187.619 101.556 190.69 97.3925 192.332 92.629C193.974 87.871 194.092 82.4573 191.956 77.8955" fill="white"/>
<path d="M179.481 91.2279C175.828 100.721 167.612 107.121 158.488 111.616C158.348 111.683 158.202 111.756 158.118 111.885C157.917 112.171 158.09 112.558 158.258 112.86C159.077 114.295 159.895 115.729 160.707 117.164C160.954 117.601 161.234 118.061 161.688 118.274C162.26 118.537 162.927 118.324 163.51 118.094C171.103 115.079 178.271 110.994 184.077 105.132C187.619 101.556 190.69 97.3925 192.332 92.629C193.974 87.871 194.092 82.4573 191.956 77.8955" stroke="black" stroke-width="1.12084" stroke-linecap="round" stroke-linejoin="round"/>
</g>
</g>
<g id="Group_22">
<path id="Path_64" d="M166.25 95.5097C166.323 95.5321 166.407 95.5377 166.491 95.5433C167.511 95.5825 172.37 96.3671 172.829 95.5433C172.992 95.2519 172.981 94.9044 172.975 94.5738C172.902 91.2337 173.507 87.8824 174.752 84.7832C174.819 84.6151 174.897 84.4414 175.06 84.3573C175.172 84.3013 175.312 84.3013 175.441 84.3125C178.663 84.4582 182.043 85.0074 185.159 83.9258C188.174 82.8778 190.83 80.5801 191.884 77.5706C193.946 71.675 189.429 67.1244 183.819 66.861C177.688 66.5696 172.902 70.7671 169.926 75.7549C168.228 78.6074 167.259 81.7738 166.575 85.0074C165.852 88.4372 165.802 91.6372 166.02 95.1062C166.026 95.2183 166.037 95.3416 166.115 95.4256C166.143 95.4649 166.194 95.4873 166.25 95.5097Z" fill="#FF8585" stroke="#FF8585" stroke-width="1.12084" stroke-linecap="round" stroke-linejoin="round"/>
<g id="Group_23">
<path id="Path_65" d="M156.997 62.3384C159.626 65.4543 163.19 66.9618 166.978 68.1835C170.15 69.2035 173.177 68.4581 175.659 71.0753C176.904 72.3867 177.918 73.9503 179.397 74.9927C181.863 76.73 184.111 74.2473 184.363 71.7758C184.531 70.1618 184.066 68.5534 183.612 66.9955C182.211 62.2039 183.926 59.6596 184.833 55.0081C185.428 51.9538 184.862 49.3142 183.511 46.5233C177.996 35.1131 162.478 32.3335 154.817 43.5811C150.822 49.4543 152.548 57.0592 156.997 62.3384Z" fill="white" stroke="black" stroke-width="1.12084" stroke-linecap="round" stroke-linejoin="round"/>
<path id="Path_66" d="M149.931 44.6851C149.695 45.6994 149.533 46.7586 149.454 47.8459C149.32 49.6952 149.432 51.6623 150.446 53.2147C150.614 53.4669 150.822 53.7247 151.119 53.8031C151.365 53.8648 151.623 53.7919 151.864 53.7191C159.732 51.3092 167.427 48.3446 174.875 44.8532C174.337 45.1895 184.873 52.6543 184.867 53.7078C184.856 55.2322 184.766 56.7902 184.873 58.3033C189.524 57.3282 188.762 49.415 187.905 45.8564C185.926 37.6294 179.14 29.6602 170.167 29.6042C160.366 29.5313 152.055 35.5334 149.931 44.6851Z" fill="black" stroke="black" stroke-width="1.12084" stroke-linecap="round" stroke-linejoin="round"/>
</g>
</g>
</g>
<g id="Group_24">
<path id="Path_67" d="M188.515 43.9565C188.504 44.1695 188.482 44.3936 188.359 44.5674C188.218 44.7635 187.972 44.8532 187.742 44.926C182.726 46.512 177.318 46.5008 172.129 45.6602C166.939 44.8252 161.912 43.1887 156.919 41.5579C155.378 41.0535 153.685 40.594 152.295 39.7366C150.497 38.6269 151.259 37.876 152.228 36.2788C154.044 33.2973 155.905 30.3439 157.877 27.4633C161.806 21.7359 166.188 16.2774 171.339 11.5978C173.463 9.67 176.029 7.77018 178.887 8.02797C181.017 8.21851 182.894 9.63077 184.094 11.4017C185.287 13.1726 185.887 15.2742 186.319 17.3702C188.14 26.152 189.065 34.9338 188.515 43.9565Z" fill="white" stroke="black" stroke-width="1.12084" stroke-linecap="round" stroke-linejoin="round"/>
<path id="Path_68" d="M154.75 32.311C159.189 35.937 164.782 37.9601 170.453 38.7951C176.125 39.6301 181.902 39.3275 187.602 38.6942" stroke="black" stroke-width="1.12084" stroke-linecap="round" stroke-linejoin="round"/>
<path id="Path_69" d="M158.04 34.6646C157.378 36.7717 156.56 38.8285 155.596 40.8124" stroke="black" stroke-width="0.56042" stroke-linecap="round" stroke-linejoin="round"/>
<path id="Path_70" d="M163.224 36.9849C162.574 38.9127 161.929 40.8406 161.279 42.7684" stroke="black" stroke-width="0.56042" stroke-linecap="round" stroke-linejoin="round"/>
<path id="Path_71" d="M168.85 38.6323C168.458 40.5041 168.06 42.3703 167.668 44.2421" stroke="black" stroke-width="0.56042" stroke-linecap="round" stroke-linejoin="round"/>
<path id="Path_72" d="M173.832 39.2603C173.642 41.1825 173.451 43.0991 173.255 45.0214" stroke="black" stroke-width="0.56042" stroke-linecap="round" stroke-linejoin="round"/>
<path id="Path_73" d="M179.689 39.6133C179.739 41.7317 179.582 43.8613 179.218 45.9516" stroke="black" stroke-width="0.56042" stroke-linecap="round" stroke-linejoin="round"/>
<path id="Path_74" d="M185.349 39.2319C185.439 41.1037 185.439 42.9811 185.355 44.8529" stroke="black" stroke-width="0.56042" stroke-linecap="round" stroke-linejoin="round"/>
<path id="Path_75" d="M160.573 35.7577C165.443 25.9671 171.54 16.793 178.68 8.51562" stroke="black" stroke-width="0.56042" stroke-linecap="round" stroke-linejoin="round"/>
<path id="Path_76" d="M180.731 8.75635C175.564 17.9472 171.086 27.5248 167.348 37.3826" stroke="black" stroke-width="0.56042" stroke-linecap="round" stroke-linejoin="round"/>
<path id="Path_77" d="M182.261 9.44043C178.831 18.9956 175.951 28.7413 173.636 38.6271" stroke="black" stroke-width="0.56042" stroke-linecap="round" stroke-linejoin="round"/>
<path id="Path_78" d="M184.094 11.396C183.617 21.1361 181.992 29.5704 180.367 39.1816" stroke="black" stroke-width="0.56042" stroke-linecap="round" stroke-linejoin="round"/>
</g>
<path id="Path_79" d="M162.411 55.4844C162.915 56.7453 163.414 58.0119 163.919 59.2728C164.165 59.8949 164.429 60.545 164.922 61.0045C165.409 61.4641 166.2 61.6826 166.766 61.324" stroke="black" stroke-width="1.12084" stroke-linecap="round" stroke-linejoin="round"/>
<path id="Path_80" d="M169.741 63.7561C170.47 63.8906 171.254 63.6776 171.821 63.2012C172.387 62.7249 172.723 61.9907 172.717 61.251" stroke="black" stroke-width="1.12084" stroke-linecap="round" stroke-linejoin="round"/>
<path id="Path_81" d="M177.01 56.9695C176.999 56.7005 176.892 56.4203 176.679 56.2521C175.822 55.5852 174.169 56.3026 174.667 57.4907C175.161 58.6732 177.072 58.2753 177.01 56.9695Z" fill="#FF8585" stroke="#FF8585" stroke-width="1.12084" stroke-linecap="round" stroke-linejoin="round"/>
<path id="Path_82" d="M158.858 61.8618C157.406 61.9066 156.824 62.9098 158.651 63.4142C160.326 63.8793 161.582 62.1476 159.39 61.8842C159.2 61.8674 159.021 61.8562 158.858 61.8618Z" fill="#FF8585" stroke="#FF8585" stroke-width="1.12084" stroke-linecap="round" stroke-linejoin="round"/>
</g>
<path id="Path_83" d="M156.308 58.5385C156.482 58.1798 157.07 58.135 157.294 58.4656C157.519 58.7963 157.266 59.3231 156.869 59.3567C156.465 59.3847 156.134 58.8972 156.308 58.5385" stroke="black" stroke-width="1.12084" stroke-linecap="round" stroke-linejoin="round"/>
<path id="Path_84" d="M171.277 53.1585C171.148 53.4499 171.596 53.7357 171.86 53.562C172.123 53.3882 172.129 52.9791 171.955 52.7157C171.748 52.5364 171.361 52.7157 171.361 52.9847" stroke="black" stroke-width="1.12084" stroke-linecap="round" stroke-linejoin="round"/>
</g>
<g id="Group_25">
<g id="Group_26">
<g id="Group_27">
<path id="Path_85" d="M134.743 91.3569C135.561 85.2764 136.167 79.1678 136.705 73.0536C136.923 70.5821 137.64 68.7271 135.55 66.5303C133.185 64.042 130.45 61.6995 127.687 59.4746C127.598 59.4018 127.497 59.3233 127.379 59.2897C126.97 59.1664 126.667 59.5419 126.555 59.8557C125.782 61.9629 122.935 85.1082 122.15 90.3426C122.044 91.0431 121.943 91.766 122.24 92.4553C122.845 93.8564 125.395 93.9909 126.931 94.4224C128.304 94.8091 129.705 95.151 131.044 95.5601C132.036 95.8627 132.759 96.3783 133.667 95.504C134.216 94.9772 134.34 94.2431 134.44 93.5482C134.541 92.8196 134.642 92.0855 134.743 91.3569Z" fill="black" stroke="black" stroke-width="0.56042" stroke-linecap="round" stroke-linejoin="round"/>
<path id="Path_86" d="M133.807 92.3546C134.625 86.274 135.231 80.1654 135.769 74.0513C135.881 72.7567 136.357 71.1707 135.959 69.8873C135.567 68.6264 133.678 67.7914 132.613 67.0292C129.699 64.95 126.78 62.8653 123.865 60.7861C123.585 60.59 123.098 60.108 122.7 60.2929C122.19 60.5283 122.604 61.3521 122.829 61.6884C122.515 61.397 121.966 61.4194 121.674 61.7332C121.383 62.0471 121.411 62.6019 121.73 62.8877C121.484 62.5907 120.979 62.5514 120.693 62.8148C120.408 63.0782 120.396 63.5826 120.677 63.8516C119.931 63.1175 119.444 63.9805 119.253 64.6922C119.119 65.1742 118.838 66.1381 119.247 66.5304C119.427 66.7042 119.785 66.6593 119.914 66.9059C120.054 67.1861 119.802 67.9035 119.757 68.2061C119.483 69.9938 119.231 71.7816 118.995 73.5749C118.525 77.1616 118.115 80.7539 117.723 84.3518C117.549 85.9714 117.376 87.591 117.208 89.205C117.062 90.6061 116.955 92.1753 117.835 93.2793C118.726 94.4001 128.78 96.1542 130.12 96.5633C131.112 96.866 131.835 97.3816 132.742 96.5073C133.292 95.9805 133.415 95.2464 133.516 94.5514C133.605 93.8117 133.706 93.0831 133.807 92.3546Z" fill="white" stroke="black" stroke-width="0.56042" stroke-linecap="round" stroke-linejoin="round"/>
<path id="Path_87" d="M132.843 71.9441C132.019 73.4517 131.93 77.1 131.773 78.2321C131.403 80.8828 131.056 83.5336 130.73 86.19C130.433 88.5886 130.148 90.9928 129.946 93.4026C129.918 93.7557 129.464 96.4625 129.901 96.6699C130.176 96.7988 130.495 96.7427 130.792 96.6811C132.389 96.3673 133.46 95.9806 134.222 94.4114C134.653 93.5259 134.631 92.2089 134.76 91.2562C135.057 89.0426 135.315 86.8233 135.567 84.5984C136.122 79.7004 136.934 74.679 137.041 69.7641C137.046 69.5007 137.013 69.1701 136.766 69.0692C136.458 68.9459 136.189 69.299 136.043 69.596C135.673 70.3245 135.152 71.1091 134.34 71.2268C134.043 71.2716 133.734 71.2212 133.454 71.3221C133.213 71.4173 133.011 71.6359 132.843 71.9441Z" fill="black" stroke="black" stroke-width="0.56042" stroke-linecap="round" stroke-linejoin="round"/>
<path id="Path_88" d="M131.958 70.9912C127.261 68.9961 122.515 67.2644 117.667 65.5607C117.28 65.4206 113.548 88.2241 113.542 93.1334C113.542 93.3239 125.048 96.608 130.445 96.7201C131.481 88.7957 132.642 80.877 133.314 72.9246C133.342 72.5267 133.359 72.1064 133.112 71.7533C132.871 71.3947 132.401 71.1817 131.958 70.9912Z" fill="black" stroke="black" stroke-width="0.56042" stroke-linecap="round" stroke-linejoin="round"/>
<path id="Path_89" d="M135.236 70.3859C131.274 67.8024 126.785 64.2718 122.823 61.6826" stroke="black" stroke-width="0.5" stroke-linecap="round" stroke-linejoin="round"/>
<path id="Path_90" d="M134.452 70.9295C130.26 68.7326 126.012 65.5999 121.725 62.8818" stroke="black" stroke-width="0.5" stroke-linecap="round" stroke-linejoin="round"/>
<path id="Path_91" d="M134.104 71.1424C130.03 68.9792 124.835 66.5245 120.665 63.8457" stroke="black" stroke-width="0.5" stroke-linecap="round" stroke-linejoin="round"/>
</g>
<path id="Path_92" d="M108.723 128.171C105.702 127.885 103.343 125.733 101.409 123.581C99.3974 121.345 97.1613 119.585 95.8555 116.8C98.0468 115.096 100.294 113.465 102.586 111.913C102.788 111.773 103.029 111.627 103.27 111.689C103.404 111.723 103.511 111.818 103.617 111.908C104.441 112.63 105.259 113.348 106.083 114.071C107.165 115.018 108.291 115.987 109.67 116.391C112.5 117.215 115.325 114.188 117.297 112.541C119.909 110.361 122.375 108.013 124.84 105.67C127.486 103.171 129.206 100.699 130.148 97.1797C131.078 96.9163 132.204 97.4879 132.989 96.9163C133.583 96.4791 133.628 95.6329 133.645 94.8931C133.667 94.0469 133.617 89.0984 134.855 88.8854C136.307 88.6332 136.116 98.8777 136.038 99.6791C135.662 103.339 133.6 105.306 131.347 108.091C127.766 112.524 124.129 116.912 120.447 121.261C117.196 125.083 114.355 128.698 108.723 128.171Z" fill="white" stroke="black" stroke-width="1.12084" stroke-linecap="round" stroke-linejoin="round"/>
<g id="Path_93">
<path d="M111.816 114.838C114.618 114.592 116.765 112.339 118.637 110.232C120.94 107.637 123.249 105.037 125.552 102.442C126.606 102.795 127.794 104.23 128.73 104.88C130.136 105.86 131.521 106.886 132.944 107.839C133.112 107.956 133.292 108.091 133.336 108.287C133.387 108.506 133.258 108.719 133.135 108.904C130.176 113.364 126.841 117.422 123.383 121.491C120.761 124.578 118.099 128.311 113.918 129.325" fill="white"/>
<path d="M111.816 114.838C114.618 114.592 116.765 112.339 118.637 110.232C120.94 107.637 123.249 105.037 125.552 102.442C126.606 102.795 127.794 104.23 128.73 104.88C130.136 105.86 131.521 106.886 132.944 107.839C133.112 107.956 133.292 108.091 133.336 108.287C133.387 108.506 133.258 108.719 133.135 108.904C130.176 113.364 126.841 117.422 123.383 121.491C120.761 124.578 118.099 128.311 113.918 129.325" stroke="black" stroke-width="1.12084" stroke-linecap="round" stroke-linejoin="round"/>
</g>
</g>
<g id="Group_28">
<path id="Path_94" d="M117.135 132.946C115.554 120.409 115.481 107.772 108.134 96.7706C101.846 87.35 91.1088 92.6908 87.5109 101.276C86.6198 103.406 86.0874 105.664 85.5942 107.917C83.7224 116.453 82.2934 125.077 81.3182 133.758C81.3911 133.075 109.491 134.117 117.135 132.946Z" fill="white" stroke="black" stroke-width="1.12084" stroke-linecap="round" stroke-linejoin="round"/>
<g id="Path_95">
<path d="M90.9855 106.118C92.9414 111.24 100.854 128.927 102.928 132.789C98.4559 132.957 93.9837 132.901 89.5116 132.923C89.265 132.923 89.0016 132.923 88.7998 132.777C88.6317 132.654 88.5364 132.458 88.4524 132.267C85.6335 126.069 82.6464 119.636 81.1501 112.927C80.2478 108.87 79.693 103.905 81.6825 100.066C83.9354 95.7112 90.3354 93.1277 94.9421 92.769" fill="white"/>
<path d="M90.9855 106.118C92.9414 111.24 100.854 128.927 102.928 132.789C98.4559 132.957 93.9837 132.901 89.5116 132.923C89.265 132.923 89.0016 132.923 88.7998 132.777C88.6317 132.654 88.5364 132.458 88.4524 132.267C85.6335 126.069 82.6464 119.636 81.1501 112.927C80.2478 108.87 79.693 103.905 81.6825 100.066C83.9354 95.7112 90.3354 93.1277 94.9421 92.769" stroke="black" stroke-width="1.12084" stroke-linecap="round" stroke-linejoin="round"/>
</g>
</g>
<g id="Group_29">
<path id="Path_96" d="M109.283 73.2107C109.222 76.3939 108.459 79.4482 106.918 81.8524C104.957 84.9179 101.712 87.4678 101.376 91.0937C101.23 92.6629 101.656 94.3385 101.006 95.7732C100.064 97.8524 96.7578 98.2615 95.3343 96.4794C93.8884 94.6692 93.244 92.2706 91.7589 90.3764C90.7053 89.0314 89.6853 87.6471 88.514 86.403C88.2506 86.1284 85.073 82.5697 85.1347 82.5361C83.9354 83.2366 82.4335 83.3991 81.1165 82.9732C78.7235 82.1998 77.4177 79.6275 78.6955 77.2906C79.211 76.3434 80.4608 76.1137 81.5368 76.1529C80.4888 70.969 81.0268 64.9109 83.9578 60.3883C87.5165 54.9074 94.0061 52.8394 100.003 55.5406C106.044 58.2755 109.423 66.0765 109.283 73.2107Z" fill="white" stroke="black" stroke-width="1.12084" stroke-linecap="round" stroke-linejoin="round"/>
<path id="Path_97" fill-rule="evenodd" clip-rule="evenodd" d="M99.6272 68.9571C99.7729 65.5609 103.337 62.4786 106.375 62.3665C109.463 62.2488 112.399 65.3592 112.326 68.6769C112.209 74.1802 104.688 77.0047 101.157 73.1994C100.132 72.0954 99.5655 70.515 99.6272 68.9571Z" stroke="black" stroke-width="1.12084" stroke-linecap="round" stroke-linejoin="round"/>
<path id="Path_98" fill-rule="evenodd" clip-rule="evenodd" d="M83.9915 70.9463C84.1316 67.5502 87.6398 64.4679 90.6324 64.3558C93.6699 64.2381 96.5673 67.3484 96.4944 70.6661C96.3767 76.1694 88.9736 78.994 85.499 75.1887C84.4902 74.0791 83.9298 72.5043 83.9915 70.9463Z" stroke="black" stroke-width="1.12084" stroke-linecap="round" stroke-linejoin="round"/>
<path id="Path_99" d="M108.224 68.5144C106.795 67.3824 104.576 67.4048 103.169 68.5592" stroke="black" stroke-width="1.12084" stroke-linecap="round" stroke-linejoin="round"/>
<path id="Path_100" d="M92.6443 70.3073C91.927 69.7357 90.9631 69.4891 90.0664 69.6516C89.1641 69.8086 88.3403 70.369 87.864 71.148" stroke="black" stroke-width="1.12084" stroke-linecap="round" stroke-linejoin="round"/>
<path id="Path_101" d="M99.0555 69.6967C98.3718 69.5398 97.6264 69.6911 97.0604 70.1002" stroke="black" stroke-width="1.12084" stroke-linecap="round" stroke-linejoin="round"/>
<path id="Path_102" d="M98.6184 69.792C99.0443 71.7591 99.4646 73.7261 99.8906 75.6932C99.9578 75.9902 100.019 76.3153 99.9018 76.6011C99.6944 77.1223 99.0331 77.2568 98.4783 77.3128" stroke="black" stroke-width="1.12084" stroke-linecap="round" stroke-linejoin="round"/>
<path id="Path_103" d="M99.1676 81.9362C97.3182 82.2108 95.3455 81.4711 94.135 80.042" stroke="black" stroke-width="1.12084" stroke-linecap="round" stroke-linejoin="round"/>
<path id="Path_104" d="M77.754 79.2294C77.7147 79.3415 77.6811 79.4536 77.6419 79.5713C77.7091 79.3583 76.196 76.9317 76.011 76.573C75.3105 75.2729 74.7613 73.8886 74.3634 72.4652C73.59 69.6967 73.3939 66.7601 73.831 63.9187C74.6268 58.7124 78.5722 54.7447 82.7249 51.8473C86.5245 49.1965 91.1368 47.6946 95.7378 47.2631C100.451 46.8203 104.817 47.7898 109.16 45.2119C109.844 48.3279 109.647 51.6343 108.611 54.655C107.271 58.5555 102.502 61.1895 98.7249 62.131C96.9203 62.5793 95.1606 63.2014 93.3224 63.448C91.0751 63.745 88.7214 63.9692 86.7039 65.09C83.616 66.8049 80.685 72.1625 81.7554 75.5475C80.7354 75.7156 79.8219 76.1191 79.099 76.8869C78.4769 77.5482 78.051 78.372 77.754 79.2294Z" fill="black" stroke="black" stroke-width="1.12084" stroke-linecap="round" stroke-linejoin="round"/>
</g>
<g id="Path_105">
<path d="M91.445 76.2309C91.9046 75.8162 92.3977 75.3287 92.4146 74.7122C92.4314 74.1518 91.9886 73.6306 91.4506 73.4849C90.907 73.3392 90.3018 73.5521 89.9151 73.9556C89.4836 74.404 89.321 75.1269 89.6125 75.6761C89.9039 76.2253 90.6941 76.4831 91.204 76.1301" fill="#FF8585"/>
<path d="M91.445 76.2309C91.9046 75.8162 92.3977 75.3287 92.4146 74.7122C92.4314 74.1518 91.9886 73.6306 91.4506 73.4849C90.907 73.3392 90.3018 73.5521 89.9151 73.9556C89.4836 74.404 89.321 75.1269 89.6125 75.6761C89.9039 76.2253 90.6941 76.4831 91.204 76.1301" stroke="#FF8585" stroke-width="1.12084" stroke-linecap="round" stroke-linejoin="round"/>
</g>
<g id="Path_106">
<path d="M106.632 74.3984C107.204 74.5161 107.837 74.1911 108.073 73.6587C108.308 73.1263 108.123 72.437 107.647 72.1007C106.868 71.5403 105.596 72.1904 105.523 73.1431C105.45 74.0958 106.492 74.9308 107.423 74.7235" fill="#FF8585"/>
<path d="M106.632 74.3984C107.204 74.5161 107.837 74.1911 108.073 73.6587C108.308 73.1263 108.123 72.437 107.647 72.1007C106.868 71.5403 105.596 72.1904 105.523 73.1431C105.45 74.0958 106.492 74.9308 107.423 74.7235" stroke="#FF8585" stroke-width="1.12084" stroke-linecap="round" stroke-linejoin="round"/>
</g>
</g>
</g>
<path id="Path_107" d="M93.569 111.891C99.969 111.067 106.391 110.439 112.831 110.013" stroke="black" stroke-width="1.12084" stroke-linecap="round" stroke-linejoin="round"/>
<path id="Path_108" d="M96.741 119.322C102.637 119.249 108.527 118.98 114.405 118.515" stroke="black" stroke-width="1.12084" stroke-linecap="round" stroke-linejoin="round"/>
<path id="Path_109" d="M285.009 104.829C284.644 103.865 282.823 104.398 283.344 105.429C283.798 106.331 285.401 105.872 285.009 104.829Z" fill="black" stroke="black" stroke-width="1.12084" stroke-linecap="round" stroke-linejoin="round"/>
<path id="Path_110" d="M292.742 110.747C292.378 109.783 290.557 110.316 291.078 111.347C291.532 112.249 293.135 111.79 292.742 110.747Z" fill="black" stroke="black" stroke-width="1.12084" stroke-linecap="round" stroke-linejoin="round"/>
<path id="Path_111" d="M310.02 114.693C309.656 113.729 307.835 114.261 308.356 115.293C308.815 116.195 310.418 115.735 310.02 114.693Z" fill="black" stroke="black" stroke-width="1.12084" stroke-linecap="round" stroke-linejoin="round"/>
<path id="Path_112" d="M307.582 106.516C307.218 105.552 305.397 106.085 305.918 107.116C306.377 108.018 307.98 107.559 307.582 106.516Z" fill="black" stroke="black" stroke-width="1.12084" stroke-linecap="round" stroke-linejoin="round"/>
<path id="Path_113" d="M286.667 121.082C286.303 120.118 284.482 120.65 285.003 121.681C285.457 122.584 287.06 122.124 286.667 121.082Z" fill="black" stroke="black" stroke-width="1.12084" stroke-linecap="round" stroke-linejoin="round"/>
</g>
</g>
</g>
</g>
</svg>
