<svg width="25" height="24" viewBox="0 0 25 24" fill="none" xmlns="http://www.w3.org/2000/svg">
<path d="M22.881 8.6544L23.3621 8.07905L23.3477 8.06699L23.3327 8.05567L22.881 8.6544ZM22.9339 8.6986L23.4432 8.14808L23.4294 8.13531L23.415 8.12325L22.9339 8.6986ZM12.9187 1.13867L13.3704 0.539944V0.539943L12.9187 1.13867ZM12.0907 1.13849L12.5422 1.73742L12.5422 1.73742L12.0907 1.13849ZM2.11924 8.65422L1.66782 8.05529L1.63998 8.07627L1.6142 8.09975L2.11924 8.65422ZM1.50105 9.89843L0.752193 9.85702L0.751051 9.87767L0.751049 9.89836L1.50105 9.89843ZM1.5 21.4134L0.749996 21.4134L0.750004 21.4157L1.5 21.4134ZM3.0819 22.9972L3.07961 23.7472H3.0819L3.0819 22.9972ZM9.0625 22.9972L9.0625 23.7472H9.0625V22.9972ZM21.9151 23V23.75L21.9174 23.75L21.9151 23ZM23.5 21.419L24.25 21.422V21.419H23.5ZM23.5 9.93638H24.25V9.91598L24.2489 9.8956L23.5 9.93638ZM22.3999 9.22974L22.4527 9.27394L23.415 8.12325L23.3621 8.07905L22.3999 9.22974ZM12.467 1.7374L22.4293 9.25313L23.3327 8.05567L13.3704 0.539944L12.467 1.7374ZM12.5422 1.73742C12.5199 1.7542 12.4892 1.75419 12.467 1.7374L13.3704 0.539943C12.8581 0.153494 12.1517 0.153338 11.6393 0.539561L12.5422 1.73742ZM2.57067 9.25315L12.5422 1.73742L11.6393 0.539561L1.66782 8.05529L2.57067 9.25315ZM2.2499 9.93984C2.26368 9.69071 2.36988 9.44041 2.62428 9.20868L1.6142 8.09975C1.08881 8.57831 0.789127 9.18918 0.752193 9.85702L2.2499 9.93984ZM2.25 21.4135L2.25105 9.8985L0.751049 9.89836L0.75 21.4134L2.25 21.4135ZM3.08419 22.2473C2.62462 22.2458 2.25141 21.8738 2.25 21.4112L0.750004 21.4157C0.753927 22.7021 1.79408 23.7433 3.07961 23.7472L3.08419 22.2473ZM9.0625 22.2472L3.0819 22.2472L3.0819 23.7472L9.0625 23.7472L9.0625 22.2472ZM9 22.3098C9 22.2752 9.02807 22.2472 9.0625 22.2472V23.7472C9.85632 23.7472 10.5 23.1038 10.5 22.3098H9ZM9 17.5007V22.3098H10.5V17.5007H9ZM12.5 14.001C10.5671 14.001 9 15.5678 9 17.5007H10.5C10.5 16.3964 11.3953 15.501 12.5 15.501V14.001ZM16 17.5007C16 15.5678 14.4329 14.001 12.5 14.001V15.501C13.6047 15.501 14.5 16.3964 14.5 17.5007H16ZM16 22.3126V17.5007H14.5V22.3126H16ZM15.9375 22.25C15.9719 22.25 16 22.2779 16 22.3126H14.5C14.5 23.1065 15.1437 23.75 15.9375 23.75V22.25ZM21.9151 22.25H15.9375V23.75H21.9151V22.25ZM22.75 21.4159C22.7481 21.8754 22.3759 22.2486 21.9128 22.25L21.9174 23.75C23.2033 23.7461 24.2448 22.7072 24.25 21.422L22.75 21.4159ZM22.75 9.93638L22.75 21.419H24.25L24.25 9.93638H22.75ZM22.4245 9.24911C22.6122 9.42279 22.7342 9.66712 22.7511 9.97717L24.2489 9.8956C24.2117 9.21241 23.9286 8.59715 23.4432 8.14808L22.4245 9.24911Z" fill="#9BA4AB"/>
</svg>
