<svg width="234" height="127" viewBox="0 0 234 127" fill="none" xmlns="http://www.w3.org/2000/svg">
<path d="M91.2896 83.4067C89.3641 82.49 87.7309 82.9314 85.9175 84.6296C86.7461 80.5052 86.7181 75.5032 83.0413 74.6613C79.2544 73.7908 77.1088 75.8877 74.8891 80.9556C74.9732 76.6069 74.0064 70.9979 69.9573 70.7701C65.4039 70.5137 63.8987 73.8442 62.7679 81.2315C61.3528 77.1 57.4438 69.864 52.8503 71.2987C48.3469 72.7032 48.6371 76.5642 51.139 84.4356C48.6711 81.0375 43.7333 75.9856 40.4288 77.9063C37.2844 79.7291 38.1451 82.7 41.6297 88.22C39.33 87.33 36.9382 87.2428 35.0247 88.9231C30.7294 92.6969 32.795 96.2712 38.7555 102.906C44.7161 109.54 87.5327 97.8039 89.5643 94.8027C91.5958 91.8015 94.7883 85.0693 91.2896 83.4067Z" fill="white" stroke="#FF3E3E" stroke-width="1.22739" stroke-linecap="round" stroke-linejoin="round"/>
<path d="M91.6259 94.678L91.6599 94.5801L34.084 94.7385L34.12 94.8364C32.61 95.0982 31.2726 95.8699 30.3886 96.9897C29.5045 98.1095 29.1425 99.4903 29.3784 100.842L33.6877 125.546L92.0562 125.388L96.3675 100.684C96.6029 99.3319 96.2406 97.9514 95.3567 96.8317C94.4727 95.712 93.1357 94.9402 91.6259 94.678Z" fill="#FFCCCC"/>
<path d="M185.942 85.7724C185.048 85.7728 184.155 85.8191 183.268 85.9113C178.488 80.0371 173.002 75.0529 167.237 71.888C152.226 63.6659 131.61 66.0138 112.37 72.349C99.1455 76.7012 82.3828 90.7139 71.6346 100.652C57.6239 101.588 46.8537 110.07 47.5002 119.773C47.6425 121.858 48.2985 123.889 49.4216 125.722L96.4455 126C96.5275 125.888 96.6056 125.772 96.6837 125.658L166.427 125.445C166.503 125.539 166.581 125.623 166.659 125.722L205.272 125.664C208.847 121.45 210.995 116.051 210.995 110.156C210.989 96.6878 199.772 85.7724 185.942 85.7724Z" fill="#5D21D1"/>
<path d="M168.605 72.6782C150.859 82.4597 134.903 82.675 124.589 81.1015C115.018 79.6418 108.124 76.3576 105.869 75.0813C105.486 75.2736 105.102 75.4705 104.718 75.6723C106.557 76.7991 113.763 80.498 124.171 82.1197C127.559 82.649 130.994 82.9152 134.434 82.9154C137.951 82.9136 141.462 82.6379 144.924 82.0912C153.331 80.7633 161.663 77.819 169.669 73.3422C169.309 73.1143 168.954 72.893 168.605 72.6782Z" fill="white"/>
<path d="M166.765 89.5157C169.587 85.9912 173.078 84.01 177.143 83.6255C178.616 83.4851 180.105 83.5676 181.546 83.8694C181.171 83.4386 180.792 83.0143 180.409 82.5966C179.306 82.4697 178.19 82.4566 177.083 82.5575C174.027 82.8352 169.587 84.1595 165.794 88.8963C165.702 89.0117 165.666 89.1549 165.692 89.2944C165.719 89.4339 165.807 89.5583 165.936 89.6403C166.038 89.705 166.16 89.7398 166.285 89.74C166.379 89.7388 166.472 89.7178 166.555 89.6789C166.638 89.6399 166.71 89.584 166.765 89.5157Z" fill="white"/>
<path d="M166.981 102.026H166.993C167.151 102.026 167.302 101.971 167.414 101.873C167.527 101.775 167.591 101.641 167.594 101.501C167.628 99.931 168.34 96.3797 170.796 93.0314C173.646 89.142 177.84 86.7443 183.254 85.8952C182.991 85.5748 182.727 85.2544 182.453 84.9375C177.049 85.9165 172.676 88.4976 169.783 92.4476C167.352 95.7674 166.435 99.3898 166.381 101.481C166.379 101.552 166.394 101.623 166.423 101.689C166.452 101.755 166.496 101.815 166.552 101.866C166.608 101.917 166.675 101.957 166.749 101.984C166.822 102.012 166.901 102.026 166.981 102.026Z" fill="white"/>
<path d="M82.1786 96.7624C79.9062 96.6783 77.6307 96.8336 75.3994 97.2252C74.7949 97.764 74.2032 98.298 73.6241 98.8273C75.8437 97.7432 88.4934 96.3922 93.7174 101.675C93.774 101.732 93.8434 101.777 93.9211 101.807C93.9987 101.838 94.0828 101.854 94.1677 101.853C94.315 101.854 94.4575 101.807 94.568 101.72C94.6873 101.626 94.76 101.495 94.7701 101.353C94.7803 101.212 94.727 101.073 94.6221 100.967C91.2575 97.5617 85.381 96.8728 82.1786 96.7624Z" fill="white"/>
<path d="M92.4712 104.408C85.3978 99.6621 76.6011 99.3791 72.8703 99.5055L71.6293 100.646C73.767 100.492 84.0088 100.066 91.7466 105.26C91.8738 105.346 92.0339 105.383 92.1917 105.363C92.3496 105.344 92.4922 105.269 92.5883 105.156C92.6844 105.043 92.726 104.901 92.7041 104.76C92.6821 104.62 92.5983 104.493 92.4712 104.408Z" fill="white"/>
<path d="M61.9552 125.546C61.9552 125.546 68.5142 108.279 86.9883 111.414C105.462 114.549 130.734 121.283 130.734 121.283V125.61L61.9552 125.546Z" fill="white" stroke="#2E186A" stroke-width="1.22739" stroke-linecap="round" stroke-linejoin="round"/>
<path d="M207.814 61.7771C207.364 61.555 206.978 61.2423 206.688 60.864C206.398 60.4857 206.211 60.0522 206.143 59.5983C205.943 58.071 207.096 51.4919 208.945 50.5734C210.795 49.6549 219.265 45.5696 220.828 45.664C222.391 45.7583 223.05 57.8396 207.814 61.7771Z" fill="white"/>
<path d="M208.713 51.3089C211.875 41.4634 214.465 39.265 215.957 40.2227C217.308 41.0913 214.555 47.3643 213.755 50.62" fill="white"/>
<path d="M208.713 51.3089C211.875 41.4634 214.465 39.265 215.957 40.2227C217.308 41.0913 214.555 47.3643 213.755 50.62" stroke="#2E186A" stroke-width="1.22739" stroke-linecap="round" stroke-linejoin="round"/>
<path d="M222.67 49.1635C224.255 46.8744 226.873 46.9883 225.506 50.8902C224.173 54.6942 223.184 59.6552 220.682 61.8963C218.18 64.1374 217.28 65.1413 217.28 65.1413C217.28 65.1413 212.276 81.7493 209.436 95.5572C205.324 115.526 197.573 119.367 190.325 117.08C183.078 114.793 181.739 105.766 191.636 88.2198C201.534 70.6738 206.752 60.4509 206.752 60.4509" fill="white"/>
<path d="M222.67 49.1635C224.255 46.8744 226.873 46.9883 225.506 50.8902C224.173 54.6942 223.184 59.6552 220.682 61.8963C218.18 64.1374 217.28 65.1413 217.28 65.1413C217.28 65.1413 212.276 81.7493 209.436 95.5572C205.324 115.526 197.573 119.367 190.325 117.08C183.078 114.793 181.739 105.766 191.636 88.2198C201.534 70.6738 206.752 60.4509 206.752 60.4509" stroke="#2E186A" stroke-width="1.22739" stroke-linecap="round" stroke-linejoin="round"/>
<path d="M206.918 60.7661C205.483 59.9027 205.655 54.8812 204.044 52.6935C202.042 49.9665 200.085 47.1397 203.789 47.5634C206.966 47.9283 207.977 50.4115 208.713 51.3015" fill="white"/>
<path d="M206.918 60.7661C205.483 59.9027 205.655 54.8812 204.044 52.6935C202.042 49.9665 200.085 47.1397 203.789 47.5634C206.966 47.9283 207.977 50.4115 208.713 51.3015" stroke="#2E186A" stroke-width="1.22739" stroke-linecap="round" stroke-linejoin="round"/>
<path d="M220.818 53.3397C220.818 53.3397 223.632 47.243 224.577 44.4234C225.612 41.3367 221.975 40.9024 220.222 45.3223" fill="white"/>
<path d="M220.818 53.3397C220.818 53.3397 223.632 47.243 224.577 44.4234C225.612 41.3367 221.975 40.9024 220.222 45.3223" stroke="#2E186A" stroke-width="1.22739" stroke-linecap="round" stroke-linejoin="round"/>
<path d="M217.514 51.7394C217.514 51.7394 223.054 40.5749 220.576 39.5816C218.316 38.6755 216.593 42.7483 213.749 50.618" fill="white"/>
<path d="M217.514 51.7394C217.514 51.7394 223.054 40.5749 220.576 39.5816C218.316 38.6755 216.593 42.7483 213.749 50.618" stroke="#2E186A" stroke-width="1.22739" stroke-linecap="round" stroke-linejoin="round"/>
<path d="M126.897 59.8459L127.673 72.4345C127.673 72.4345 126.358 79.2272 136.968 77.9687C147.536 76.7138 146.24 71.1493 146.24 71.1493L142.969 55.5115L126.897 59.8459Z" fill="white" stroke="#2E186A" stroke-width="1.22739" stroke-linecap="round" stroke-linejoin="round"/>
<path d="M147.032 39.6529C147.032 39.6529 155.238 36.9151 155.559 44.516C155.879 52.1169 147.032 50.1481 147.032 50.1481" fill="white"/>
<path d="M147.032 39.6529C147.032 39.6529 155.238 36.9151 155.559 44.516C155.879 52.1169 147.032 50.1481 147.032 50.1481" stroke="#2E186A" stroke-width="1.22739" stroke-linecap="round" stroke-linejoin="round"/>
<path d="M125.856 27.6997H139.943C142.013 27.6997 143.998 28.4311 145.462 29.733C146.926 31.035 147.749 32.8007 147.749 34.6419V49.3524C147.749 53.15 146.052 56.792 143.033 59.4773C140.014 62.1626 135.918 63.6712 131.648 63.6712C129.534 63.6712 127.44 63.3008 125.487 62.5812C123.534 61.8616 121.759 60.8069 120.264 59.4773C118.769 58.1477 117.583 56.5692 116.774 54.8319C115.965 53.0947 115.548 51.2327 115.548 49.3524V36.8652C115.548 34.4344 116.634 32.1031 118.567 30.3842C120.499 28.6654 123.121 27.6997 125.854 27.6997H125.856Z" fill="white" stroke="#2E186A" stroke-width="1.22739" stroke-linecap="round" stroke-linejoin="round"/>
<path d="M151.496 56.1397C151.5 53.0229 151.172 49.9128 150.515 46.8513C150.515 46.7926 150.515 46.7303 150.515 46.6733C150.512 46.1358 150.271 45.621 149.844 45.241C149.416 44.8609 148.837 44.6464 148.233 44.644V46.6733L148.293 48.7026C148.756 48.69 149.204 48.5522 149.576 48.3074C150.315 52.4015 151.778 64.6092 145.619 74.9869C144.488 76.8898 143.427 78.6485 142.403 80.3485C136.598 89.9822 132.755 96.3459 132.845 102.03C132.845 102.171 132.909 102.307 133.021 102.407C133.134 102.507 133.287 102.564 133.446 102.564C133.605 102.564 133.758 102.507 133.87 102.407C133.983 102.307 134.046 102.171 134.046 102.03C133.96 96.6236 137.741 90.356 143.453 80.8683C144.48 79.1683 145.541 77.4078 146.672 75.5014C150.715 68.6926 151.526 61.2164 151.496 56.1397Z" fill="#FF3E3E"/>
<path d="M113.983 48.9156C114.264 49.0565 114.576 49.1421 114.898 49.1666V45.1294C114.389 45.1707 113.91 45.3628 113.538 45.6749C113.167 45.987 112.924 46.4011 112.848 46.8507C112.782 46.9386 112.746 47.0421 112.746 47.148C112.746 47.9597 112.746 67.1381 119.151 75.7909C125.7 84.6556 127.725 89.7039 128.176 98.2998C128.183 98.4371 128.249 98.5666 128.361 98.6614C128.473 98.7562 128.622 98.8091 128.776 98.8089H128.804C128.963 98.8024 129.113 98.7401 129.22 98.6357C129.327 98.5312 129.384 98.3931 129.377 98.2518C128.914 89.4298 126.847 84.2605 120.158 75.2071C115.056 68.3111 114.145 53.9247 113.983 48.9156Z" fill="#FF3E3E"/>
<path d="M126.725 40.7637L126.937 52.3074C126.937 52.3074 127.893 53.5356 129.433 51.0328" stroke="#2E186A" stroke-width="1.22739" stroke-linecap="round" stroke-linejoin="round"/>
<path d="M126.725 54.7621C127.894 55.9779 130.64 55.7785 133.362 54.196C133.362 54.196 134.422 57.288 129.14 57.7562" stroke="#2E186A" stroke-width="1.22739" stroke-linecap="round" stroke-linejoin="round"/>
<path d="M131.835 37.0451C131.995 37.0095 133.706 34.8147 136.334 36.6891" stroke="#2E186A" stroke-width="1.22739" stroke-linecap="round" stroke-linejoin="round"/>
<path d="M136.334 45.5324C136.883 45.5324 137.329 44.9196 137.329 44.1636C137.329 43.4075 136.883 42.7947 136.334 42.7947C135.785 42.7947 135.339 43.4075 135.339 44.1636C135.339 44.9196 135.785 45.5324 136.334 45.5324Z" fill="#2E186A"/>
<path d="M121.783 45.8849C122.332 45.8849 122.778 45.2721 122.778 44.5161C122.778 43.7601 122.332 43.1472 121.783 43.1472C121.233 43.1472 120.788 43.7601 120.788 44.5161C120.788 45.2721 121.233 45.8849 121.783 45.8849Z" fill="#2E186A"/>
<path d="M118.602 36.9436C118.763 36.9133 120.93 34.2735 123.114 36.7656" stroke="#2E186A" stroke-width="1.22739" stroke-linecap="round" stroke-linejoin="round"/>
<path d="M135.661 24.5882C131.764 24.6327 128.806 24.8072 127.033 25.0955C112.708 27.9935 115.024 37.4349 115.024 37.4349C115.024 37.4349 122.029 38.6222 127.731 31.1139C127.731 31.1139 135.563 36.7976 147.146 39.0868C147.332 39.0476 147.546 38.996 147.747 38.939V39.4606C148.701 39.2351 149.689 39.1432 150.675 39.1883C150.547 35.4662 149.798 30.7757 146.35 27.7478C143.91 25.5975 140.307 24.533 135.661 24.5882Z" fill="#2E186A"/>
<path d="M151.279 38.2804C150.823 33.5846 149.562 24.1592 136.334 24.0399C133.364 24.0133 130.395 24.1596 127.447 24.4778" stroke="white" stroke-width="1.22739" stroke-linecap="round" stroke-linejoin="round"/>
<path d="M173.266 16.8378C168.328 4.27234 154.306 -2.79628 141.952 1.04687C131.798 4.2047 125.94 13.7529 126.909 24.0292C128.768 23.7373 131.7 23.5646 135.645 23.5201C140.623 23.4632 144.508 24.6291 147.196 26.9877C150.999 30.3324 151.772 35.4163 151.884 39.3645C153.723 39.8077 155.416 41.1445 155.559 44.516C155.573 44.8577 155.236 47.4709 155.318 47.462C155.306 48.4935 155.621 49.5072 156.227 50.3866C157.604 52.3625 160.412 53.5907 164.577 54.0215H164.647C164.807 54.0297 164.963 53.9814 165.082 53.8871C165.202 53.7928 165.274 53.6602 165.283 53.5186C165.292 53.377 165.238 53.2379 165.132 53.1319C165.026 53.0259 164.877 52.9617 164.718 52.9534C160.945 52.5583 158.435 51.508 157.258 49.8294C156.842 49.2297 156.595 48.5493 156.539 47.8465C157.568 48.9145 159.341 50.0662 162.168 50.0662C162.913 50.0626 163.655 49.9904 164.383 49.8508C164.463 49.8389 164.539 49.8129 164.607 49.7742C164.675 49.7355 164.734 49.685 164.78 49.6256C164.825 49.5663 164.857 49.4994 164.873 49.4289C164.889 49.3584 164.888 49.2858 164.872 49.2155C164.856 49.1451 164.823 49.0784 164.777 49.0193C164.731 48.9603 164.672 48.9102 164.604 48.8719C164.535 48.8337 164.459 48.8081 164.379 48.7968C164.299 48.7854 164.218 48.7885 164.139 48.8059C160.498 49.4788 158.465 48.2452 157.418 47.1451C158.238 46.9852 159.047 46.7813 159.84 46.5345C172.193 42.7003 178.204 29.4015 173.266 16.8378Z" fill="#2E186A"/>
<path d="M137.211 51.031C141.256 51.031 144.536 48.1142 144.536 44.516C144.536 40.9179 141.256 38.001 137.211 38.001C133.165 38.001 129.885 40.9179 129.885 44.516C129.885 48.1142 133.165 51.031 137.211 51.031Z" stroke="#2E186A" stroke-width="1.22739" stroke-linecap="round" stroke-linejoin="round"/>
<path d="M124.945 44.3398H129.725" stroke="#2E186A" stroke-width="1.22739" stroke-linecap="round" stroke-linejoin="round"/>
<path d="M143.615 41.353L147.749 39.2756" stroke="#2E186A" stroke-width="1.22739" stroke-linecap="round" stroke-linejoin="round"/>
<path d="M117.381 51.031C121.427 51.031 124.707 48.1141 124.707 44.516C124.707 40.9178 121.427 38.001 117.381 38.001C113.336 38.001 110.056 40.9178 110.056 44.516C110.056 48.1141 113.336 51.031 117.381 51.031Z" stroke="#2E186A" stroke-width="1.22739" stroke-linecap="round" stroke-linejoin="round"/>
<path d="M167.76 118.887H163.599L161.553 91.9598C161.47 91.0363 161.003 90.1736 160.242 89.5402C159.482 88.9069 158.484 88.5484 157.442 88.535H99.4398C98.9439 88.5287 98.452 88.6148 97.9957 88.7879C97.5395 88.9609 97.129 89.2169 96.7908 89.5395C96.4526 89.8621 96.194 90.2442 96.0318 90.661C95.8696 91.0779 95.8074 91.5203 95.8491 91.9598L98.1128 121.771C98.1954 122.694 98.6627 123.557 99.423 124.191C100.183 124.824 101.182 125.182 102.224 125.195L167.76 125.121C168.045 125.121 168.327 125.071 168.59 124.974C168.853 124.877 169.093 124.735 169.294 124.555C169.495 124.376 169.655 124.164 169.764 123.929C169.873 123.695 169.93 123.444 169.93 123.191V120.816C169.93 120.563 169.873 120.312 169.764 120.078C169.655 119.844 169.495 119.631 169.294 119.452C169.093 119.273 168.853 119.131 168.59 119.034C168.327 118.937 168.045 118.887 167.76 118.887Z" fill="#FF3E3E"/>
<path d="M132.545 106.341C131.713 105.574 130.635 105.055 129.459 104.855C129.649 104.611 129.765 104.328 129.795 104.032C129.841 103.569 129.689 103.107 129.37 102.739C129.051 102.371 128.587 102.124 128.072 102.046C128.05 102.046 128.026 102.046 128.004 102.046C127.779 101.311 127.357 100.107 126.873 99.5928C126.784 99.4969 126.661 99.4303 126.525 99.4038C126.388 99.3774 126.246 99.3925 126.12 99.4468C126.065 99.4742 126.019 99.5126 125.984 99.5591C125.949 99.6055 125.927 99.6586 125.919 99.714C125.911 99.7695 125.919 99.8258 125.94 99.8783C125.961 99.9308 125.996 99.9781 126.042 100.016C126.36 100.355 126.749 101.408 126.991 102.211C126.713 102.343 126.477 102.534 126.306 102.769C126.134 103.003 126.033 103.273 126.01 103.552C125.987 103.813 126.025 104.075 126.123 104.323C126.221 104.57 126.376 104.796 126.578 104.986C126.223 105.087 125.882 105.225 125.564 105.398C123.478 106.549 123.222 108.842 124.991 110.517C126.761 112.192 129.887 112.617 131.973 111.466C134.058 110.314 134.316 108.016 132.545 106.341Z" fill="white"/>
<path d="M131.666 99.5064C131.666 99.5064 128.664 98.9724 128.264 101.196C128.272 101.199 130.632 101.952 131.666 99.5064Z" fill="white"/>
<path d="M22 125.438L235 126" stroke="#C7CFD5" stroke-width="1.22739" stroke-linecap="round" stroke-linejoin="round"/>
</svg>
