<svg width="19" height="19" viewBox="0 0 19 19" fill="none" xmlns="http://www.w3.org/2000/svg">
<path fill-rule="evenodd" clip-rule="evenodd" d="M0.999999 6.24887C1.4956 6.24829 2 6.61602 2 7.03024L2 17.5401C2 17.9543 1.48816 18.2901 1 18.2901C0.511843 18.2901 -3.767e-06 17.9543 -3.73078e-06 17.5401L-9.05496e-07 7.04014C-8.69284e-07 6.62592 0.502008 6.24945 0.999999 6.24887Z" fill="#13C998"/>
<path d="M4.07155 6.24887L8.67738 0.931706C9.28065 0.379809 10.0537 0.0522568 10.748 0.499715C11.4247 0.935792 11.748 1.49957 11.248 2.49957L10.248 4.99958C9.74801 5.99958 10.1569 6.68473 10.9483 6.68473L17.2021 6.68474C17.6718 6.68474 18.1501 6.8018 18.4323 7.03024C19.012 7.49958 18.8842 8.52985 18.659 9.38068L16.9395 17.4933C16.9395 17.4933 16.8627 17.7353 16.6443 17.9926C16.4259 18.2499 16.0829 18.5 15.4845 18.5L5.18407 18.5C5.18407 18.5 4.8095 18.5 4.41832 18.3153C4.23394 18.2282 4.07568 18.1103 3.9616 17.9487C3.8511 17.7921 3.74801 17.5469 3.74801 17.1481L3.74801 7.10496C3.74801 6.79288 3.86232 6.49041 4.07155 6.24887Z" fill="#13C998"/>
</svg>
