<svg width="24" height="24" viewBox="0 0 24 24" fill="none" xmlns="http://www.w3.org/2000/svg">
<path fill-rule="evenodd" clip-rule="evenodd" d="M8.31801 16.3794L4.60601 16.9094C4.11108 16.9801 3.68686 16.5559 3.75753 16.061L4.28753 12.349C4.31047 12.1883 4.38491 12.0394 4.49967 11.9246L14.0457 2.37863C14.8035 1.62075 15.9082 1.32477 16.9435 1.60217C17.9787 1.87957 18.7874 2.68822 19.0648 3.7235C19.3422 4.75878 19.0462 5.86341 18.2883 6.62129L8.74233 16.1673C8.62757 16.2821 8.47868 16.3565 8.31801 16.3794ZM17.2277 5.56063C17.6066 5.18169 17.7546 4.62937 17.6159 4.11173C17.4772 3.59409 17.0729 3.18976 16.5552 3.05106C16.0376 2.91236 15.4853 3.06035 15.1063 3.43929L5.73713 12.8085L5.38379 15.2832L7.85847 14.9298L17.2277 5.56063ZM6 8.24996C6 7.83575 5.66421 7.49996 5.25 7.49996H2.25C1.00736 7.49996 0 8.50732 0 9.74996V20.25C0 21.4926 1.00736 22.5 2.25 22.5H21.75C22.9926 22.5 24 21.4926 24 20.25V9.74996C24 8.50732 22.9926 7.49996 21.75 7.49996H20.25C19.8358 7.49996 19.5 7.83575 19.5 8.24996C19.5 8.66417 19.8358 8.99996 20.25 8.99996H21.75C22.1642 8.99996 22.5 9.33575 22.5 9.74996V20.25C22.5 20.6642 22.1642 21 21.75 21H2.25C1.83579 21 1.5 20.6642 1.5 20.25V9.74996C1.5 9.33575 1.83579 8.99996 2.25 8.99996H5.25C5.66421 8.99996 6 8.66417 6 8.24996ZM20.25 17.25C20.6642 17.25 21 17.5857 21 18C21 18.4142 20.6642 18.75 20.25 18.75H12.75C12.3358 18.75 12 18.4142 12 18C12 17.5857 12.3358 17.25 12.75 17.25H20.25ZM21 14.25C21 13.8357 20.6642 13.5 20.25 13.5H15.75C15.3358 13.5 15 13.8357 15 14.25C15 14.6642 15.3358 15 15.75 15H20.25C20.6642 15 21 14.6642 21 14.25Z" fill="#FF5959"/>
</svg>
