<svg width="20" height="20" viewBox="0 0 20 20" fill="none" xmlns="http://www.w3.org/2000/svg">
<g clip-path="url(#clip0)">
<path d="M3.85 9.375C3.85 9.08505 4.08505 8.85 4.375 8.85H15.625C15.9149 8.85 16.15 9.08505 16.15 9.375V18.125C16.15 18.4149 15.9149 18.65 15.625 18.65H4.375C4.08505 18.65 3.85 18.4149 3.85 18.125V9.375ZM15.1 5C15.1 2.18335 12.8167 -0.1 10 -0.1C7.18335 -0.1 4.9 2.18335 4.9 5V7.4H4.375C3.28424 7.4 2.4 8.28424 2.4 9.375V18.125C2.4 19.2158 3.28424 20.1 4.375 20.1H15.625C16.7158 20.1 17.6 19.2158 17.6 18.125V9.375C17.6 8.28424 16.7158 7.4 15.625 7.4H15.1V5ZM10 11.775C9.59959 11.775 9.275 12.0996 9.275 12.5V15C9.275 15.4004 9.59959 15.725 10 15.725C10.4004 15.725 10.725 15.4004 10.725 15V12.5C10.725 12.0996 10.4004 11.775 10 11.775ZM6.35 5C6.35 2.98416 7.98416 1.35 10 1.35C12.0158 1.35 13.65 2.98416 13.65 5V7.4H6.35V5Z" fill="#FF4724" stroke="#FF5959" stroke-width="0.2"/>
</g>
<defs>
<clipPath id="clip0">
<rect width="20" height="20" fill="white"/>
</clipPath>
</defs>
</svg>
