<svg width="14" height="14" viewBox="0 0 14 14" fill="none" xmlns="http://www.w3.org/2000/svg">
<path fill-rule="evenodd" clip-rule="evenodd" d="M13.7432 12.5747L9.91019 8.73998C10.5973 7.80284 10.9653 6.66986 10.9602 5.50782C10.9471 2.47453 8.4938 0.0175753 5.46065 5.57205e-05C4.00911 -0.00651189 2.61524 0.56774 1.58955 1.59488C0.56385 2.62203 -0.00846501 4.01674 9.46511e-05 5.46832C0.0132045 8.50189 2.46672 10.9591 5.50015 10.9766C6.66687 10.9816 7.80394 10.6093 8.74168 9.91504L8.74568 9.91204L12.5752 13.7437C12.7823 13.9609 13.0908 14.0489 13.3812 13.9734C13.6717 13.898 13.8984 13.6711 13.9736 13.3805C14.0488 13.09 13.9606 12.7815 13.7432 12.5747ZM5.51642 9.99996C3.02567 9.98565 1.01101 7.9711 1.00007 5.48386C0.993349 4.29378 1.46334 3.15042 2.30543 2.30827C3.14752 1.46612 4.29181 0.995095 5.48358 1.00004C7.97433 1.01435 9.98899 3.0289 9.99993 5.51614C10.0067 6.70622 9.53666 7.84958 8.69457 8.69173C7.85248 9.53388 6.70819 10.0049 5.51642 9.99996Z" fill="#8E8E93"/>
</svg>
