<svg width="25" height="25" viewBox="0 0 25 25" fill="none" xmlns="http://www.w3.org/2000/svg">
<path fill-rule="evenodd" clip-rule="evenodd" d="M10.154 17.2514C10.1542 16.8372 9.8045 16.5013 9.37303 16.5012C5.33907 16.5 1.96937 13.5506 1.59644 9.69457C1.2235 5.83856 3.96998 2.344 7.93475 1.62984C11.8995 0.915681 15.7788 3.21677 16.8872 6.9403C17.0058 7.33856 17.4382 7.56915 17.8531 7.45533C18.268 7.34151 18.5082 6.92638 18.3896 6.52811C17.0594 2.05989 12.4043 -0.701424 7.6466 0.155567C2.88888 1.01256 -0.406893 5.20603 0.0406278 9.83324C0.488148 14.4605 4.53179 17.9998 9.37254 18.0012C9.80401 18.0013 10.1539 17.6657 10.154 17.2514ZM8.59154 13.2812H6.91758C6.48611 13.2812 6.13633 12.9454 6.13633 12.5312C6.13633 12.117 6.48611 11.7812 6.91758 11.7812L10.3811 11.7813C10.5584 11.7838 10.7293 11.7172 10.8547 11.5968C10.9801 11.4764 11.0494 11.3124 11.0467 11.1312C11.0467 10.9131 10.4766 10.478 8.98239 9.65048L8.9773 9.64766C6.79531 8.43922 6.13633 7.93602 6.13887 6.93165C6.08829 6.33115 6.31475 5.7396 6.75834 5.31345C7.20193 4.8873 7.81798 4.66948 8.38112 4.71521H8.59154V3.69721C8.59154 3.28299 8.94131 2.94721 9.37279 2.94721C9.80426 2.94721 10.154 3.28299 10.154 3.69721V4.71521H11.828C12.2595 4.71521 12.6092 5.05099 12.6092 5.46521C12.6092 5.87942 12.2595 6.21521 11.828 6.21521L9.42489 6.21356C9.40767 6.21465 9.39029 6.21521 9.37279 6.21521C9.3549 6.21521 9.33715 6.21463 9.31956 6.21349L8.31871 6.21281C8.14977 6.19981 7.98339 6.25864 7.86359 6.37373C7.74379 6.48882 7.68263 6.64858 7.69883 6.87121C7.69883 7.08838 8.26853 7.52341 9.75809 8.34836L9.76318 8.35118C11.9512 9.56295 12.6092 10.0651 12.6092 11.1203C12.6179 11.6959 12.3836 12.2504 11.9595 12.6575C11.5355 13.0646 10.9579 13.2895 10.3697 13.2812H10.154V14.3042C10.154 14.7184 9.80426 15.0542 9.37279 15.0542C8.94131 15.0542 8.59154 14.7184 8.59154 14.3042V13.2812ZM21.937 18.1961C23.8548 18.6051 25.1577 20.3178 24.9801 22.1947L24.876 23.3177C24.8377 23.7303 24.4583 24.035 24.0285 23.9982C23.5987 23.9615 23.2813 23.5973 23.3196 23.1847L23.4239 22.0604C23.5305 20.9334 22.7488 19.9058 21.5898 19.6585L17.9742 18.8475C17.6207 18.7682 17.3707 18.4657 17.3707 18.1172L17.3709 12.3917C17.3643 12.0856 17.2308 11.7947 17 11.5834C16.7693 11.3721 16.4602 11.2578 16.0883 11.2656C15.7965 11.2539 15.5133 11.3626 15.3101 11.5641C15.107 11.7657 15.0031 12.0409 15.027 12.3762V21.5762C15.027 22.1934 14.2937 22.5464 13.7784 22.1773L12.2386 21.0741C11.914 20.8414 11.4606 20.8727 11.174 21.1477C10.8874 21.4227 10.8546 21.8579 11.0956 22.1681L11.5904 22.8011C11.8493 23.1324 11.7795 23.6025 11.4344 23.8511C11.0893 24.0997 10.5996 24.0327 10.3406 23.7014L9.84453 23.0667C9.13804 22.1577 9.2338 20.8886 10.0694 20.0868C10.905 19.285 12.227 19.1936 13.1734 19.8721L13.4648 20.0809L13.4666 12.4318C13.4119 11.7253 13.6741 11.0301 14.1873 10.521C14.7005 10.0119 15.4157 9.73751 16.1 9.76647C16.8346 9.74775 17.5467 10.011 18.0785 10.498C18.6103 10.9849 18.9178 11.6553 18.9332 12.3762V17.5223L21.937 18.1961Z" fill="#FF5959"/>
</svg>
