<svg width="24" height="24" viewBox="0 0 24 24" fill="none" xmlns="http://www.w3.org/2000/svg">
<path d="M13.8109 18.3752C13.7786 18.3596 13.7474 18.3416 13.7174 18.3214C10.5521 16.1829 7.8261 13.4576 5.68687 10.2929C5.66759 10.2644 5.65037 10.2347 5.63528 10.204C4.68141 8.64002 4.91834 6.62159 6.21849 5.31999L6.66909 4.87038C7.01228 4.52615 7.47855 4.33295 7.96463 4.33359C8.45071 4.33423 8.91647 4.52864 9.25656 4.87157L11.1568 6.77182C11.8691 7.48478 11.8691 8.64003 11.1568 9.35299C11.0296 9.48028 11.0296 9.68653 11.1566 9.81366L14.1982 12.8562C14.3258 12.9837 14.5326 12.9837 14.6601 12.8563C15.3731 12.144 16.5284 12.144 17.2416 12.8566L19.1418 14.7568C19.8541 15.4698 19.8541 16.625 19.141 17.3388L18.6897 17.7891C17.391 19.0885 15.3743 19.3268 13.8109 18.3752ZM14.548 17.0672C15.5273 17.6905 16.8081 17.5498 17.6295 16.728L18.0807 16.2778C18.2078 16.1505 18.2078 15.9443 18.0809 15.8172L16.1811 13.9175C16.0539 13.7903 15.8476 13.7903 15.7202 13.9176C15.0069 14.6299 13.8516 14.6299 13.1378 13.9171L10.0957 10.874C9.38335 10.161 9.38335 9.00578 10.0957 8.29282C10.2228 8.16553 10.2228 7.95928 10.0959 7.83223L8.19371 5.93003C8.1326 5.86841 8.04945 5.83359 7.96266 5.83359C7.87588 5.83359 7.79264 5.86797 7.72997 5.93082L7.27886 6.38094C6.45823 7.20249 6.31783 8.48359 6.94106 9.46337C6.95091 9.47887 6.96018 9.49468 6.96883 9.51079C8.98083 12.4715 11.5346 15.0251 14.4956 17.0367C14.5134 17.0462 14.5309 17.0563 14.548 17.0672ZM21.6002 19.2139C21.3517 19.5453 20.8816 19.6124 20.5502 19.3639C20.2188 19.1153 20.1517 18.6452 20.4003 18.3139C23.3226 14.4178 23.1825 9.02378 20.062 5.28459C16.9415 1.54541 11.6596 0.442497 7.30354 2.62052C2.94749 4.79855 0.660646 9.68586 1.7797 14.4258C2.89875 19.1657 7.12998 22.5141 12.0002 22.5139C15.9267 22.5139 17.5367 20.8512 16.515 18.1886C16.3666 17.8019 16.5598 17.3681 16.9465 17.2197C17.3333 17.0713 17.7671 17.2645 17.9154 17.6512C19.3672 21.4344 16.8694 24.0139 12.0003 24.0139C6.43437 24.0142 1.59873 20.1874 0.319832 14.7704C-0.959069 9.35346 1.65443 3.76803 6.63272 1.27888C11.611 -1.21026 17.6475 0.0501943 21.2137 4.3235C24.7799 8.5968 24.9399 14.7614 21.6002 19.2139Z" fill="#9BA4AB"/>
</svg>
