<svg id="Capa_1" enable-background="new 0 0 512 512" height="512" viewBox="0 0 512 512" width="512" xmlns="http://www.w3.org/2000/svg"><g><g><g><path d="m156.551 380.039c-7.206 0-14.719-.766-22.468-2.315-29.583-5.917-59.498-22.798-84.233-47.534-24.736-24.735-41.617-54.65-47.534-84.233-6.357-31.787.479-59.631 19.25-78.4 18.771-18.771 46.614-25.605 78.4-19.25 29.583 5.917 59.498 22.798 84.233 47.534 24.736 24.735 41.617 54.65 47.534 84.233 6.357 31.787-.479 59.631-19.25 78.4-14.194 14.195-33.579 21.564-55.932 21.565z" fill="#ff6378"/><g><path d="m231.733 280.073c-5.917-29.583-22.798-59.498-47.534-84.234l-134.349 134.35c24.735 24.736 54.65 41.617 84.233 47.534 7.749 1.55 15.262 2.315 22.468 2.316 22.354-.001 41.738-7.37 55.933-21.566 18.77-18.769 25.607-46.613 19.249-78.4z" fill="#ff3838"/></g><path d="m177.941 298.869c-14.363 0-40.201-8.067-64.453-32.318-27.021-27.021-33.949-56.012-32.015-68.904 1.229-8.192 8.863-13.846 17.06-12.608 8.176 1.227 13.814 8.835 12.616 17.008-.282 3.022 2.65 22.39 23.552 43.292 20.947 20.945 40.319 23.84 43.312 23.55 8.186-1.225 15.794 4.42 17.023 12.613 1.229 8.192-4.451 15.835-12.645 17.064-1.32.197-2.81.303-4.45.303z" fill="#ff3838"/></g><g><g><path d="m195.037 281.5c-1.229-8.193-8.838-13.838-17.023-12.613-2.993.29-22.365-2.605-43.313-23.55l-21.213 21.213c24.252 24.251 50.09 32.318 64.453 32.318 1.64 0 3.13-.106 4.451-.304 8.194-1.229 13.875-8.871 12.645-17.064z" fill="#af3345"/></g></g></g><g><g><path d="m343.942 512c-39.504 0-75.881-14.734-103.021-41.875l-.53-.532c-9.815-9.917-12.379-24.52-6.518-37.188 5.942-12.844 18.928-20.438 33.061-19.367 33.262 2.553 72.367-14.341 102.064-44.039 29.698-29.699 46.573-68.808 44.039-102.064-1.077-14.143 6.525-27.12 19.368-33.061 12.67-5.861 27.27-3.298 37.199 6.53l.52.518c28.616 28.615 43.441 67.501 41.744 109.493-1.679 41.535-19.373 81.179-49.824 111.63s-70.095 48.146-111.63 49.824c-2.165.088-4.323.131-6.472.131z" fill="#ff6378"/></g><path d="m266.934 413.038c-14.133-1.07-27.118 6.523-33.061 19.367-5.861 12.668-3.298 27.271 6.518 37.188l.53.532c27.14 27.141 63.517 41.875 103.021 41.875 2.148 0 4.306-.043 6.472-.131 41.535-1.679 81.179-19.373 111.63-49.824l-93.046-93.046c-29.697 29.698-68.802 46.592-102.064 44.039z" fill="#ff3838"/></g><path d="m145.279 130.014c-60.8 0-110.264-46.144-110.264-102.862l.001-.528c.059-11.25 6.931-21.048 17.509-24.935 10.693-3.928 22.409-.872 29.845 7.789 13.096 15.257 37.201 24.734 62.909 24.734 25.707 0 49.812-9.478 62.909-24.734 7.438-8.661 19.155-11.717 29.845-7.789 10.578 3.887 17.45 13.685 17.509 24.962l.001.501c-.001 56.718-49.465 102.862-110.264 102.862z" fill="#ff6378"/><path d="m255.542 27.152-.001-.501c-.059-11.277-6.931-21.075-17.509-24.962-10.689-3.928-22.407-.872-29.845 7.789-13.097 15.257-37.202 24.734-62.909 24.734v95.802c60.8 0 110.264-46.144 110.264-102.862z" fill="#ff3838"/><path d="m88.202 512c-4.922 0-10.098-.689-15.423-2.091-15.217-4.005-30.856-13.47-44.037-26.651-13.182-13.181-22.647-28.82-26.652-44.037-4.684-17.799-1.413-33.964 8.974-44.351 10.386-10.387 26.552-13.658 44.35-8.974 15.217 4.005 30.856 13.47 44.038 26.651s22.646 28.821 26.651 44.038c4.684 17.799 1.413 33.964-8.974 44.35-7.279 7.28-17.398 11.065-28.927 11.065z" fill="#ff6378"/><path d="m315.015 345.006c-14.688 0-28.432-9.118-37.705-25.016-7.929-13.592-12.295-31.343-12.295-49.984s4.366-36.393 12.295-49.984c9.273-15.897 23.017-25.016 37.705-25.016s28.432 9.118 37.705 25.016c7.929 13.592 12.295 31.343 12.295 49.984s-4.366 36.393-12.295 49.984c-9.273 15.897-23.017 25.016-37.705 25.016z" fill="#ff6378"/><path d="m315.015 195.006c14.688 0 28.432 9.118 37.705 25.016 7.929 13.592 12.295 31.343 12.295 49.984s-4.366 36.393-12.295 49.984c-9.273 15.897-23.017 25.016-37.705 25.016z" fill="#ff3838"/><g><path d="m11.064 394.87c-10.387 10.387-13.657 26.552-8.974 44.351 4.005 15.217 13.47 30.856 26.651 44.037 13.181 13.182 28.82 22.646 44.037 26.651 5.326 1.402 10.502 2.091 15.424 2.091 11.529 0 21.648-3.785 28.928-11.064z" fill="#ff3838"/></g><g><path d="m397 170c-29.76 0-57.928-8.244-79.312-23.214-23.014-16.109-35.688-38.052-35.688-61.786s12.674-45.677 35.688-61.786c21.384-14.97 49.552-23.214 79.312-23.214s57.928 8.244 79.312 23.214c23.014 16.109 35.688 38.052 35.688 61.786s-12.674 45.677-35.688 61.786c-21.384 14.97-49.552 23.214-79.312 23.214z" fill="#ff6378"/><path d="m476.312 23.214c-21.384-14.97-49.552-23.214-79.312-23.214v170c29.76 0 57.928-8.244 79.312-23.214 23.014-16.109 35.688-38.052 35.688-61.786s-12.674-45.677-35.688-61.786z" fill="#ff3838"/><path d="m397 95c-25.046 0-40.216-8.968-45.576-12.823-6.725-4.838-8.255-14.211-3.417-20.937 4.838-6.725 14.211-8.255 20.937-3.417 1.665 1.199 10.847 7.177 28.056 7.177s26.391-5.979 28.057-7.177c6.727-4.84 16.099-3.308 20.937 3.417 4.838 6.726 3.308 16.099-3.417 20.937-5.361 3.855-20.531 12.823-45.577 12.823z" fill="#ff3838"/><path d="m442.576 82.177c6.725-4.838 8.255-14.211 3.417-20.937-4.838-6.725-14.21-8.257-20.937-3.417-1.665 1.198-10.847 7.177-28.056 7.177v30c25.046 0 40.216-8.968 45.576-12.823z" fill="#af3345"/></g></g></svg>