<?xml version="1.0" encoding="iso-8859-1"?>
<!-- Generator: Adobe Illustrator 19.0.0, SVG Export Plug-In . SVG Version: 6.00 Build 0)  -->
<svg version="1.1" id="Layer_1" xmlns="http://www.w3.org/2000/svg" xmlns:xlink="http://www.w3.org/1999/xlink" x="0px" y="0px"
	 viewBox="0 0 512 512" style="enable-background:new 0 0 512 512;" xml:space="preserve">
<path style="fill:#FF6465;" d="M371.854,66.341H40.236C18.013,66.341,0,84.354,0,106.576v298.849
	c0,22.221,18.013,40.235,40.236,40.235h331.619c22.221,0,40.236-18.013,40.236-40.235V106.576
	C412.09,84.354,394.075,66.341,371.854,66.341z"/>
<path style="fill:#515262;" d="M53.406,185.94c-4.135,0-7.498-3.363-7.498-7.497v-69.685c0-4.134,3.363-7.496,7.498-7.496h311.957
	c4.134,0,7.497,3.362,7.497,7.496v69.685c0,4.134-3.363,7.497-7.497,7.497H53.406z"/>
<g>
	<rect x="45.909" y="223.643" style="fill:#FFFFFF;" width="137.575" height="64.723"/>
	<rect x="45.909" y="333.423" style="fill:#FFFFFF;" width="137.575" height="64.723"/>
	<rect x="227.789" y="223.643" style="fill:#FFFFFF;" width="137.575" height="64.723"/>
	<rect x="227.789" y="333.423" style="fill:#FFFFFF;" width="137.575" height="64.723"/>
</g>
<path style="fill:#FF999A;" d="M505.616,230.932l-43.825-43.825c-8.512-8.512-22.313-8.512-30.826,0l-24.349,24.349l20.736,53.914
	l53.914,20.736l24.349-24.349C514.128,253.245,514.128,239.445,505.616,230.932z"/>
<polygon style="fill:#FFEBBF;" points="273.077,419.647 275.513,342.56 298.686,319.389 373.336,394.038 350.163,417.211 "/>
<polygon style="fill:#FFD782;" points="350.163,417.211 275.513,342.56 375.144,242.93 427.353,265.37 449.795,317.579 "/>
<rect x="375.418" y="242.251" transform="matrix(-0.7071 -0.7071 0.7071 -0.7071 543.9526 754.323)" style="fill:#515262;" width="105.567" height="44.509"/>
<path style="opacity:0.1;enable-background:new    ;" d="M505.616,230.932l-30.865-30.865c8.513,8.513,8.512,22.313,0,30.826
	L319.298,386.345l-45.213,1.43l-1.007,31.874l77.087-2.437l155.453-155.453C514.128,253.245,514.128,239.445,505.616,230.932z"/>
<path style="opacity:0.1;enable-background:new    ;" d="M87.301,405.424V106.576c0-22.221,18.013-40.235,40.236-40.235H40.236
	C18.013,66.341,0,84.354,0,106.576v298.849c0,22.22,18.013,40.235,40.236,40.235h87.301
	C105.314,445.659,87.301,427.645,87.301,405.424z"/>
<g>
</g>
<g>
</g>
<g>
</g>
<g>
</g>
<g>
</g>
<g>
</g>
<g>
</g>
<g>
</g>
<g>
</g>
<g>
</g>
<g>
</g>
<g>
</g>
<g>
</g>
<g>
</g>
<g>
</g>
</svg>
