<svg width="20" height="24" viewBox="0 0 20 24" fill="none" xmlns="http://www.w3.org/2000/svg">
<path d="M12.2162 21.0304C12.6136 21.147 12.8412 21.5638 12.7246 21.9613C12.3699 23.1693 11.2615 23.9992 10.0024 23.9992C8.74337 23.9992 7.63494 23.1693 7.2803 21.9613C7.16362 21.5638 7.39123 21.147 7.78868 21.0304C8.18612 20.9137 8.60289 21.1413 8.71956 21.5387C8.88669 22.1081 9.40907 22.4992 10.0024 22.4992C10.5958 22.4992 11.1182 22.1081 11.2853 21.5387C11.402 21.1413 11.8187 20.9137 12.2162 21.0304ZM9.99993 0C10.4141 0 10.7499 0.335786 10.7499 0.75V3C10.7499 3.41421 10.4141 3.75 9.99993 3.75C9.58572 3.75 9.24993 3.41421 9.24993 3V0.75C9.24993 0.335786 9.58572 0 9.99993 0ZM17.5351 17.4941C17.0407 15.9361 16.7499 13.6542 16.7499 10.5C16.7499 6.77208 13.7279 3.75 9.99993 3.75C6.27201 3.75 3.24993 6.77208 3.24993 10.5C3.24993 13.3401 2.95934 15.5518 2.46926 17.2125C2.38259 17.5062 2.29459 17.7682 2.20736 18H17.7122C17.6523 17.8453 17.5931 17.6769 17.5351 17.4941ZM9.99993 2.25C14.5563 2.25 18.2499 5.94365 18.2499 10.5C18.2499 13.511 18.5217 15.644 18.9648 17.0404C19.1102 17.4987 19.2598 17.8294 19.3999 18.0517C19.462 18.1502 19.4889 18.1808 19.4694 18.1651C20.0218 18.6085 19.7083 19.5 18.9999 19.5H0.999928C0.374715 19.5 0.0239704 18.78 0.409378 18.2877C0.537238 18.1243 0.77556 17.6522 1.0306 16.788C1.47801 15.2718 1.74993 13.2022 1.74993 10.5C1.74993 5.94365 5.44358 2.25 9.99993 2.25Z" fill="#9BA4AB"/>
</svg>
