<svg width="24" height="24" viewBox="0 0 24 24" fill="none" xmlns="http://www.w3.org/2000/svg">
<path d="M16.6389 13.437L16.9146 13.7123C18.8279 13.0276 20.9869 13.4961 22.4463 14.9555C24.0341 16.5433 24.449 18.9593 23.4819 20.9858C23.259 21.4529 22.641 21.5592 22.2749 21.1933L20.8497 19.7691C20.5505 19.4699 20.0655 19.4699 19.7663 19.7691C19.4672 20.0683 19.4672 20.5533 19.7665 20.8526L21.1905 22.2776C21.5564 22.6438 21.4502 23.2617 20.983 23.4846C18.9565 24.4517 16.5405 24.0368 14.9527 22.449C13.4934 20.9897 13.0248 18.8306 13.7095 16.9174L13.4343 16.6417C13.1416 16.3485 13.142 15.8737 13.4351 15.581C13.7282 15.2884 14.2031 15.2887 14.4958 15.5819L15.1248 16.2119C15.3491 16.4366 15.4076 16.7782 15.2709 17.0648C14.5775 18.5178 14.875 20.25 16.0134 21.3884C16.8783 22.2532 18.0859 22.6328 19.2534 22.4612L18.7057 21.9131C17.8207 21.0282 17.8207 19.5934 18.7057 18.7084C19.5906 17.8235 21.0254 17.8235 21.9102 18.7082L22.4584 19.2561C22.63 18.0886 22.2505 16.881 21.3856 16.0161C20.2472 14.8777 18.515 14.5803 17.062 15.2736C16.7755 15.4104 16.4338 15.3519 16.2091 15.1275L15.5791 14.4985C15.286 14.2059 15.2856 13.731 15.5783 13.4379C15.8709 13.1447 16.3458 13.1444 16.6389 13.437ZM20.983 0.516885C21.4502 0.739818 21.5564 1.35776 21.1905 1.72391L19.7663 3.14909C19.4672 3.44825 19.4672 3.93328 19.7663 4.23243C20.0655 4.53159 20.5505 4.53159 20.8489 4.23318L22.2739 2.80418C22.6398 2.43725 23.2587 2.54309 23.4819 3.01075C24.449 5.03727 24.0341 7.45327 22.4463 9.04104C20.9871 10.5003 18.8282 10.9689 16.9151 10.2844L10.2845 16.9178C10.9682 18.8304 10.4998 20.9883 9.04132 22.4472C7.45446 24.0346 5.03974 24.4503 3.01343 23.4848C2.54595 23.2621 2.43947 22.6439 2.8055 22.2776L4.2102 20.8727C4.49049 20.5706 4.48153 20.1008 4.18993 19.8096C3.89832 19.5185 3.4286 19.5102 3.14616 19.7723L1.72116 21.1963C1.35502 21.5622 0.737072 21.4559 0.514139 20.9888C-0.452939 18.9623 -0.0380321 16.5463 1.54974 14.9585C3.00898 13.4992 5.16779 13.0307 7.08088 13.7151L13.7094 7.08384C13.0249 5.1707 13.4934 3.01178 14.9527 1.55248C16.5405 -0.0352855 18.9565 -0.450192 20.983 0.516885ZM16.0134 2.61314C14.875 3.75155 14.5775 5.48377 15.2709 6.93675C15.4077 7.22347 15.3491 7.56529 15.1245 7.78998L7.78745 15.13C7.56278 15.3548 7.22083 15.4135 6.934 15.2766C5.48103 14.5833 3.7488 14.8807 2.6104 16.0191C1.74545 16.8841 1.36595 18.0919 1.53767 19.2595L2.10514 18.6927C2.99767 17.8623 4.38722 17.8868 5.24984 18.7482C6.11247 19.6097 6.13897 20.9992 5.29053 21.9129L4.74341 22.4604C5.91013 22.6308 7.11646 22.251 7.98049 21.3867C9.11824 20.2486 9.4157 18.5172 8.72304 17.0646C8.58634 16.7779 8.64504 16.4362 8.86958 16.2115L16.2086 8.86954C16.4333 8.64477 16.7752 8.58601 17.062 8.72289C18.515 9.41626 20.2472 9.11878 21.3856 7.98038C22.2498 7.11618 22.6294 5.90977 22.4588 4.74309L21.9103 5.29309C21.0254 6.17804 19.5906 6.17804 18.7057 5.29309C17.8207 4.40815 17.8207 2.97337 18.7055 2.08862L19.2534 1.54036C18.0859 1.36877 16.8783 1.74828 16.0134 2.61314ZM9.04132 1.55434C10.4999 3.01339 10.9683 5.17152 10.2843 7.0842L10.3829 7.18302C10.6755 7.47624 10.675 7.95111 10.3818 8.24368C10.0885 8.53625 9.61367 8.53572 9.3211 8.24251L8.8691 7.78951C8.64494 7.56485 8.58644 7.22342 8.72304 6.93695C9.4157 5.48435 9.11824 3.75295 7.98049 2.61482C7.11646 1.75051 5.91013 1.37069 4.74341 1.54111L5.29035 2.08843C6.17529 2.97338 6.17529 4.40815 5.29035 5.29309C4.4054 6.17804 2.97063 6.17803 2.08587 5.29328L1.53762 4.74541C1.36603 5.91292 1.74554 7.12052 2.6104 7.98538C3.7488 9.12378 5.48103 9.42126 6.934 8.72789C7.22078 8.59103 7.56266 8.64975 7.78735 8.87443L8.31735 9.40443C8.61024 9.69733 8.61024 10.1722 8.31735 10.4651C8.02445 10.758 7.54958 10.758 7.25669 10.4651L7.08099 10.2894C5.16787 10.9739 3.00901 10.5053 1.54974 9.04604C-0.0380321 7.45827 -0.452939 5.04227 0.514139 3.01575C0.737072 2.54859 1.35502 2.44236 1.72116 2.80825L3.14635 4.23243C3.4455 4.53159 3.93053 4.53159 4.22969 4.23243C4.52884 3.93328 4.52884 3.44825 4.2295 3.14891L2.8055 1.72391C2.43947 1.35762 2.54595 0.739406 3.01343 0.516682C5.03974 -0.448729 7.45446 -0.0330546 9.04132 1.55434Z" fill="#9BA4AB"/>
</svg>
